<?xml version="1.0" standalone="no"?>
<!DOCTYPE svg PUBLIC "-//W3C//DTD SVG 20010904//EN"
 "http://www.w3.org/TR/2001/REC-SVG-20010904/DTD/svg10.dtd">
<svg version="1.0" xmlns="http://www.w3.org/2000/svg"
 width="2836.000000pt" height="2835.000000pt" viewBox="0 0 2836.000000 2835.000000"
 preserveAspectRatio="xMidYMid meet">

<g transform="translate(0.000000,2835.000000) scale(0.100000,-0.100000)"
fill="#000000" stroke="none">
<path d="M9722 26489 c-354 -18 -1137 -115 -1642 -205 -390 -69 -989 -207
-1327 -304 -531 -154 -1020 -348 -1140 -454 -51 -45 -142 -179 -224 -332 -29
-54 -94 -167 -144 -250 -100 -165 -524 -1010 -738 -1469 -274 -589 -571 -1309
-877 -2120 -309 -822 -564 -1785 -587 -2221 -9 -176 12 -238 126 -357 153
-161 540 -394 923 -557 165 -70 152 -53 163 -195 21 -260 84 -566 178 -870 37
-118 138 -386 168 -447 29 -57 24 -77 -29 -127 -339 -323 -526 -817 -483
-1272 42 -442 226 -824 557 -1155 353 -352 827 -581 1347 -649 262 -34 609
-14 852 49 54 14 101 23 104 20 3 -3 6 -56 7 -117 1 -62 7 -134 14 -162 36
-142 125 -262 232 -311 54 -25 75 -29 148 -28 57 0 100 6 130 18 70 28 81 26
104 -19 26 -50 111 -137 157 -160 187 -97 402 -27 498 162 11 23 21 49 21 58
0 34 33 23 154 -49 69 -42 129 -76 133 -76 4 0 21 -10 36 -23 25 -19 32 -39
61 -177 64 -296 126 -510 233 -808 51 -140 55 -155 42 -179 -7 -14 -19 -28
-26 -30 -7 -3 -52 17 -100 44 -109 61 -215 111 -311 148 -77 29 -93 45 -74 76
16 24 15 82 0 97 -13 13 -57 16 -75 4 -6 -4 -22 -27 -35 -52 -28 -53 -19 -52
-188 -16 -190 39 -312 49 -520 43 -375 -11 -714 -110 -1036 -302 -50 -30 -94
-55 -97 -55 -4 0 -20 14 -37 30 -34 33 -70 39 -94 14 -20 -20 -21 -68 -1 -84
15 -13 21 -50 8 -50 -5 0 -32 14 -62 30 -61 34 -92 37 -115 14 -28 -27 -19
-60 24 -95 22 -18 40 -35 40 -38 0 -4 -42 -50 -94 -104 -240 -248 -414 -513
-539 -823 -38 -94 -68 -183 -117 -349 -5 -16 -21 -88 -35 -160 -15 -71 -30
-134 -34 -138 -5 -5 -52 3 -106 18 -110 29 -150 24 -161 -21 -11 -42 18 -71
83 -84 32 -6 82 -19 112 -28 l54 -17 2 -310 c2 -382 19 -500 114 -805 117
-374 415 -1040 694 -1550 476 -872 988 -1528 1634 -2097 l153 -134 -16 -31
c-33 -63 17 -100 83 -61 l29 16 161 -114 c89 -63 164 -120 167 -128 4 -8 -6
-30 -22 -50 -45 -56 -54 -78 -43 -100 25 -45 65 -32 122 39 18 22 41 40 51 40
10 0 64 -27 121 -59 410 -237 829 -395 1282 -486 71 -15 133 -32 137 -38 4 -7
5 -44 1 -82 -5 -59 -3 -74 11 -88 41 -40 86 -3 86 70 0 65 14 93 48 93 42 0
57 -18 76 -90 23 -85 54 -110 91 -73 14 13 16 28 10 80 l-7 64 209 -7 c258 -8
487 7 723 47 96 16 191 34 210 39 19 5 58 14 85 21 375 89 813 259 1157 446
l103 57 125 6 c145 7 206 28 284 100 44 40 54 62 71 142 3 18 19 37 43 52 21
13 56 42 77 65 22 23 43 41 48 41 4 0 15 -17 23 -37 127 -323 391 -546 752
-635 72 -18 116 -22 252 -22 230 0 366 33 565 134 100 51 195 116 625 423 74
53 143 97 154 97 20 0 85 -47 637 -461 197 -147 407 -301 467 -343 112 -76
201 -142 702 -514 473 -353 542 -405 555 -426 11 -18 8 -84 -20 -421 -41 -472
-44 -597 -20 -715 56 -276 221 -542 435 -700 185 -137 378 -201 605 -201 279
0 518 102 721 305 214 216 329 487 341 801 4 132 0 173 -66 678 -80 607 -85
658 -74 673 9 12 2181 1457 2224 1480 41 21 52 18 79 -19 87 -119 203 -245
277 -301 460 -345 1065 -320 1434 61 182 187 274 403 286 673 14 339 -119 665
-373 912 -43 42 -196 174 -339 293 -143 119 -264 225 -269 236 -10 21 -21 -64
204 1659 57 442 120 926 155 1200 23 182 33 228 53 234 9 3 60 10 112 16 162
19 322 48 382 69 264 92 510 303 647 553 37 68 84 204 102 293 23 117 16 311
-15 429 -47 176 -132 323 -263 457 -62 63 -64 68 -74 135 -52 372 -230 668
-482 800 -53 28 -85 38 -136 41 -57 5 -73 11 -116 43 -61 47 -135 77 -234 96
-41 8 -77 16 -79 19 -2 2 -5 33 -6 68 -2 73 -16 97 -57 97 -37 0 -57 -30 -65
-101 -7 -62 -15 -69 -81 -69 -18 0 -69 -7 -114 -16 -69 -14 -82 -15 -90 -3 -4
8 -29 70 -55 139 -53 143 -112 301 -154 410 -163 425 -280 756 -273 771 4 9
114 127 244 261 362 374 350 360 422 503 97 194 133 365 124 589 -4 92 -13
167 -26 216 -74 281 -257 517 -504 650 -442 238 -1024 113 -1383 -297 -40 -47
-119 -158 -175 -246 -56 -89 -143 -227 -192 -305 -50 -79 -96 -146 -103 -149
-8 -3 -112 16 -231 41 -196 40 -429 89 -1183 246 -129 27 -271 56 -315 65 -44
10 -84 21 -89 25 -8 8 -31 203 -86 735 -40 388 -60 560 -79 695 -16 110 -59
222 -134 350 -207 351 -556 560 -937 560 -346 0 -653 -169 -850 -468 -178
-268 -236 -583 -170 -912 18 -89 51 -193 316 -993 64 -194 102 -323 97 -331
-4 -8 -26 -34 -47 -58 -38 -41 -275 -297 -286 -308 -3 -3 -36 -39 -74 -80 -39
-41 -102 -109 -141 -150 -38 -41 -126 -136 -195 -210 -69 -74 -152 -164 -185
-199 -33 -35 -65 -69 -70 -75 -27 -30 -287 -310 -349 -376 -39 -41 -127 -136
-196 -210 -69 -74 -157 -169 -196 -210 -39 -41 -131 -140 -204 -220 -74 -80
-155 -167 -182 -195 l-48 -50 -29 16 c-16 10 -73 50 -127 90 -55 40 -130 96
-169 124 -38 28 -124 91 -190 140 -66 49 -135 99 -152 112 -18 13 -33 31 -33
39 0 8 35 57 79 108 199 236 367 486 508 756 105 203 224 488 263 630 10 36
39 137 65 225 61 206 89 325 120 510 57 346 78 754 54 1095 -7 107 -13 215
-13 240 l-1 45 64 22 c126 43 254 136 426 308 180 179 343 393 481 627 41 72
54 79 102 54 53 -27 154 -46 247 -46 274 0 577 166 817 449 105 124 167 218
238 359 204 406 232 832 72 1122 -40 73 -156 194 -216 225 l-38 20 6 55 c3 30
10 87 15 125 15 104 13 307 -4 415 -40 245 -183 485 -365 610 -177 121 -352
167 -593 157 -357 -15 -713 -186 -1023 -492 -203 -199 -339 -389 -454 -633
-26 -54 -47 -87 -51 -80 -3 7 -12 69 -18 138 -80 829 -390 1503 -894 1936
-198 171 -433 308 -677 394 -63 23 -120 46 -126 51 -7 6 -35 49 -63 97 -231
392 -649 731 -1198 969 -40 18 -73 37 -73 42 0 6 67 79 149 163 126 130 216
228 360 393 292 334 461 572 535 758 49 123 31 152 -115 187 -83 20 -120 23
-319 23 -231 0 -357 -9 -610 -44 -518 -71 -1265 -256 -1574 -389 -73 -31 -80
-24 -72 63 13 143 -19 442 -65 607 -58 211 -238 489 -363 560 l-51 30 -225 -2
c-124 0 -298 -5 -388 -9z m-396 -874 c188 -63 302 -172 320 -307 13 -97 -52
-219 -151 -283 -30 -19 -57 -35 -59 -35 -2 0 -33 -16 -68 -36 -164 -93 -399
-106 -615 -34 -100 33 -169 77 -224 139 -57 65 -71 96 -77 173 -4 61 -2 74 27
132 75 153 282 267 516 285 118 9 241 -4 331 -34z m4033 -67 c25 -8 47 -20 48
-25 7 -21 -53 -132 -153 -283 -106 -159 -166 -233 -409 -506 -77 -86 -176
-198 -219 -247 -140 -159 -689 -689 -971 -937 -237 -209 -575 -482 -720 -581
-44 -31 -138 -98 -210 -150 -364 -267 -734 -512 -1100 -731 -167 -100 -336
-198 -341 -198 -2 0 -30 -16 -64 -36 -197 -115 -730 -380 -960 -477 -302 -128
-701 -277 -940 -352 -47 -15 -111 -36 -144 -46 -58 -19 -158 -44 -456 -115
l-155 -37 -155 22 c-85 12 -183 21 -216 21 -133 0 -365 -60 -501 -129 -88 -44
-249 -147 -321 -203 -35 -28 -65 -48 -69 -45 -8 8 49 96 225 347 272 388 424
587 642 835 287 328 940 938 1384 1293 77 62 174 141 214 174 317 263 973 663
1612 983 127 64 272 138 321 166 148 82 653 314 858 394 73 29 141 59 150 67
15 13 32 68 92 299 11 42 28 52 219 126 340 132 1135 315 1570 363 233 26 284
28 500 25 164 -2 237 -7 269 -17z m596 -2705 c99 -37 331 -161 321 -171 -3 -2
-38 0 -78 7 -40 6 -117 16 -171 21 -73 7 -106 15 -124 30 -14 11 -23 20 -19
20 4 0 0 10 -8 23 -12 19 -21 63 -17 90 1 9 41 1 96 -20z m211 -282 c176 -31
326 -68 387 -95 70 -31 137 -92 239 -221 95 -117 135 -176 212 -308 88 -150
236 -500 236 -559 0 -27 -8 -23 -118 55 -201 142 -492 250 -882 327 -58 11
-114 22 -125 25 -11 2 -30 13 -42 24 -18 17 -20 29 -17 81 2 34 8 67 13 74 16
19 24 96 10 96 -7 0 -9 3 -6 6 4 4 -5 29 -19 55 -19 34 -25 55 -20 74 7 29
-14 135 -26 135 -5 0 -6 10 -3 23 8 29 -37 86 -124 160 -27 22 -31 30 -21 41
24 30 157 33 306 7z m-3296 -279 c0 -5 -36 -46 -80 -93 -90 -95 -87 -92 -156
-179 -115 -146 -202 -334 -205 -446 -2 -45 2 -59 19 -77 l21 -21 108 23 c60
12 119 25 133 28 23 4 79 11 255 30 82 9 523 9 612 0 110 -11 306 -37 322 -43
8 -2 30 -7 50 -10 20 -3 42 -7 50 -10 8 -2 30 -7 50 -10 20 -3 47 -9 61 -13
14 -5 52 -14 85 -21 33 -6 83 -20 110 -30 41 -14 122 -40 145 -45 14 -3 57
-17 75 -24 11 -5 52 -18 90 -31 39 -12 95 -34 125 -48 30 -14 57 -27 60 -27 3
-1 23 -10 45 -20 22 -10 43 -18 47 -17 3 1 12 -5 18 -13 7 -8 20 -15 30 -15 9
0 28 -8 41 -18 13 -10 42 -24 64 -31 22 -8 59 -27 83 -43 24 -17 49 -31 55
-32 11 -2 23 -8 109 -63 21 -12 40 -23 44 -23 10 0 273 -178 359 -243 360
-273 702 -621 981 -997 69 -93 244 -355 244 -365 0 -3 14 -24 30 -47 17 -22
30 -46 30 -51 0 -6 6 -18 14 -26 19 -22 185 -345 234 -456 141 -320 236 -598
318 -925 54 -214 116 -610 133 -835 12 -167 13 -577 1 -715 -33 -404 -91 -712
-209 -1097 -105 -341 -328 -797 -538 -1096 -149 -213 -318 -416 -346 -417 -10
0 -39 11 -66 24 -291 148 -690 158 -976 26 -184 -86 -326 -206 -429 -365 -118
-181 -166 -345 -166 -565 0 -123 -1 -130 -22 -144 -26 -16 -436 -119 -540
-136 -37 -6 -73 -12 -80 -15 -18 -6 -279 -42 -358 -49 -36 -4 -103 -11 -150
-16 -308 -36 -846 -38 -1190 -5 -303 29 -344 35 -600 81 -233 43 -390 79 -565
133 -164 50 -340 109 -374 127 -14 8 -32 14 -39 14 -8 0 -28 6 -45 14 -18 8
-70 31 -117 51 -47 20 -107 49 -135 64 -27 15 -70 36 -95 46 -25 11 -97 50
-160 88 -394 237 -661 501 -804 799 -47 99 -70 126 -110 134 -39 7 -59 -2
-179 -81 -223 -145 -476 -239 -782 -291 -121 -21 -468 -24 -590 -5 -385 58
-683 170 -975 364 -329 219 -595 542 -718 872 -61 165 -83 254 -102 405 -21
176 -5 404 39 548 5 18 9 33 9 35 -6 11 46 139 100 247 66 130 69 134 134 179
87 59 164 89 283 108 48 8 244 3 269 -7 15 -5 39 -10 54 -10 15 -1 45 -8 67
-16 22 -8 72 -23 112 -34 39 -10 98 -31 130 -45 135 -62 168 -79 175 -89 4 -6
8 -8 8 -3 0 4 17 -3 38 -16 20 -13 58 -34 85 -47 42 -21 51 -30 49 -50 0 -3 8
-6 18 -7 11 -1 25 -7 32 -13 56 -47 75 -60 89 -60 9 0 24 -9 34 -20 10 -11 24
-20 32 -20 7 0 13 -3 13 -7 0 -5 16 -19 35 -32 20 -13 34 -29 32 -35 -2 -5
-40 -11 -86 -13 -46 -2 -91 -8 -101 -13 -10 -6 -28 -10 -39 -10 -12 0 -29 -4
-39 -9 -9 -5 -57 -28 -105 -51 -49 -24 -94 -48 -100 -54 -7 -6 -35 -29 -62
-50 -63 -50 -70 -57 -128 -133 -50 -66 -123 -203 -131 -247 -3 -15 -9 -42 -15
-59 -28 -89 -15 -272 25 -376 15 -36 50 -97 78 -134 168 -224 463 -292 769
-177 61 23 82 48 73 86 -9 34 -49 41 -105 19 -253 -96 -491 -49 -635 126 -146
177 -141 455 12 662 142 192 338 296 560 298 136 2 237 -33 318 -108 191 -176
437 -510 594 -805 82 -154 100 -175 140 -155 43 21 37 56 -28 180 -202 384
-445 697 -776 1001 -140 128 -255 224 -294 247 -15 8 -70 43 -122 77 -100 66
-329 183 -440 226 -238 91 -501 127 -687 95 -35 -6 -67 -9 -69 -6 -29 28 264
245 471 350 131 66 181 78 305 72 211 -11 395 -54 634 -150 327 -130 635 -313
941 -560 79 -64 261 -243 330 -325 34 -41 85 -110 114 -152 59 -88 63 -92 96
-84 59 15 52 63 -30 185 -25 37 -45 74 -44 82 0 7 34 41 76 74 181 142 355
339 537 607 47 70 86 130 86 133 0 3 17 34 38 68 20 34 43 71 49 82 7 11 28
52 48 90 19 39 40 77 45 85 9 14 34 68 90 195 108 247 233 633 279 860 7 33
17 80 23 105 16 75 46 270 53 355 4 44 9 94 11 110 8 67 4 402 -6 498 -23 217
-79 442 -150 602 -25 56 -85 151 -111 177 -27 27 -8 78 51 138 3 3 11 16 18
30 7 14 25 40 40 57 15 18 52 67 82 109 51 69 86 115 203 262 59 75 159 196
166 202 3 3 29 32 56 65 28 32 61 71 74 85 13 14 53 59 90 100 95 107 479 490
491 490 15 0 14 -3 -29 -93 -21 -45 -48 -104 -60 -132 -12 -27 -26 -59 -31
-70 -9 -20 -48 -137 -55 -165 -17 -70 -17 -78 4 -99 27 -27 57 -27 75 2 7 12
28 63 46 112 40 115 54 149 107 263 24 51 43 97 43 102 0 6 4 10 9 10 5 0 11
10 15 23 3 12 45 83 94 157 88 133 188 248 267 306 22 16 51 39 65 51 32 28
166 123 295 209 55 37 112 76 127 86 15 10 30 18 33 18 4 0 13 7 21 15 17 17
24 19 24 7z m3439 -653 c47 -11 138 -35 201 -54 63 -18 131 -36 150 -40 36 -7
41 -9 182 -73 142 -65 367 -222 423 -296 26 -34 65 -202 80 -340 3 -33 8 -62
10 -66 12 -19 35 -420 34 -586 -1 -219 3 -234 66 -234 44 0 62 24 70 95 15
126 52 273 122 485 69 210 277 505 488 693 292 260 649 417 949 417 180 0 413
-98 569 -240 95 -87 96 -85 -56 -85 -123 0 -138 -2 -227 -33 -174 -61 -336
-169 -492 -328 -119 -122 -192 -221 -288 -394 -29 -52 -68 -115 -85 -140 -18
-25 -44 -76 -59 -115 -15 -38 -31 -79 -36 -90 -18 -42 -61 -165 -104 -295
-208 -636 -369 -954 -542 -1072 -62 -42 -103 -56 -185 -65 -58 -6 -100 3 -180
39 -46 20 -48 23 -137 202 -195 389 -470 806 -718 1086 -222 252 -439 462
-633 615 -113 89 -191 156 -191 164 0 19 50 107 67 118 22 13 67 100 79 153
12 51 12 54 55 160 52 128 87 236 104 317 4 22 13 33 28 35 37 5 166 -11 256
-33z m-7294 -1206 c69 -25 154 -76 190 -112 l29 -31 -12 -104 c-12 -112 -44
-206 -112 -333 -132 -244 -246 -389 -507 -651 -106 -107 -193 -197 -193 -202
0 -10 -261 -238 -425 -371 -154 -125 -499 -386 -785 -594 -113 -82 -260 -196
-328 -252 -68 -57 -127 -103 -133 -103 -17 0 -139 -132 -185 -201 -25 -38 -50
-69 -55 -69 -5 0 -9 2 -9 4 0 1 -11 48 -24 102 -55 222 -105 594 -87 644 5 16
7 89 5 165 -9 283 38 407 221 587 112 110 384 286 484 314 31 8 65 20 76 26
11 6 58 34 105 61 47 27 141 79 210 115 69 36 142 76 162 89 21 13 40 23 43
23 9 0 289 172 380 234 240 163 420 348 523 536 41 75 91 107 200 130 100 20
156 18 227 -7z m-725 -13 c41 -6 99 -13 128 -16 30 -4 52 -12 52 -19 0 -22
-124 -189 -189 -255 -180 -180 -582 -441 -981 -635 -85 -42 -131 -69 -222
-132 -76 -52 -146 -98 -268 -178 -74 -48 -170 -116 -212 -151 -43 -35 -80 -64
-84 -64 -24 0 55 221 126 355 26 50 76 144 110 210 171 327 322 547 424 619
75 54 193 118 266 146 30 11 64 25 75 30 149 67 571 116 775 90z m1375 -155
c62 -18 139 -68 177 -116 81 -100 114 -498 68 -804 -11 -71 -20 -157 -20 -191
0 -100 -85 -384 -186 -621 -54 -128 -173 -358 -257 -498 -266 -442 -653 -839
-1030 -1057 -147 -85 -247 -102 -357 -63 -275 100 -482 141 -660 131 -126 -6
-165 -16 -285 -71 -125 -56 -193 -93 -289 -157 -49 -32 -94 -57 -100 -55 -10
4 -76 162 -138 329 -21 56 -5 141 45 240 58 118 206 285 341 386 50 38 126
101 168 140 42 39 136 115 210 169 397 291 683 515 951 742 81 69 166 136 189
147 70 37 276 239 448 440 105 122 238 320 306 454 77 154 94 211 118 387 2
17 7 36 10 42 6 9 69 32 121 44 28 7 111 -2 170 -18z m425 -189 c120 -38 251
-108 333 -177 121 -103 220 -363 262 -686 24 -179 14 -708 -17 -888 -94 -560
-404 -1338 -653 -1640 -33 -41 -85 -108 -115 -150 -125 -173 -270 -332 -413
-452 l-78 -66 -97 96 c-234 231 -516 438 -807 596 -193 103 -186 90 -80 144
147 74 156 79 293 181 223 165 578 578 798 929 228 364 456 922 518 1267 41
229 46 586 11 760 -23 113 -26 108 45 86z m10547 -3148 c-3 -8 -6 -5 -6 6 -1
11 2 17 5 13 3 -3 4 -12 1 -19z m1187 -2688 c111 -21 374 -73 585 -114 211
-42 388 -79 393 -84 9 -9 9 -10 -391 -1310 -159 -519 -295 -949 -301 -957 -9
-11 -21 -9 -70 11 -32 13 -76 26 -99 30 -46 7 -49 13 -61 114 -5 41 -50 413
-100 825 -183 1506 -182 1496 -176 1511 3 8 9 14 13 14 4 0 97 -18 207 -40z
m-12294 -390 c0 -5 -13 -16 -28 -24 -110 -57 -230 -228 -273 -386 -16 -57 -15
-212 0 -269 7 -23 11 -45 9 -47 -8 -7 -66 41 -87 72 -44 64 -64 134 -69 244
-6 137 7 187 51 202 58 20 261 127 327 172 74 51 70 49 70 36z m10738 -167
c11 -32 49 -141 85 -243 445 -1267 677 -1935 677 -1946 0 -8 -30 -47 -67 -86
-119 -130 -205 -289 -288 -530 -26 -76 -51 -138 -55 -138 -7 0 -226 159 -615
449 -132 98 -314 231 -405 297 -159 114 -759 552 -790 577 -9 7 -32 25 -53 40
-20 15 -37 31 -37 35 0 7 38 48 184 202 45 47 155 164 246 260 91 96 203 215
250 265 47 49 87 92 90 95 3 3 41 43 85 90 44 47 161 170 260 275 99 104 214
226 255 270 111 117 139 145 149 145 5 0 18 -26 29 -57z m3315 -805 c56 -162
186 -536 201 -577 23 -64 21 -74 -31 -117 -93 -78 -107 -84 -155 -78 -48 7
-59 0 -74 -49 l-9 -27 -51 44 c-65 57 -95 65 -123 35 -32 -34 -26 -53 35 -113
38 -38 53 -60 47 -69 -4 -8 -39 -40 -78 -72 -141 -119 -332 -295 -395 -366
-36 -40 -75 -84 -88 -98 -13 -14 -51 -59 -85 -98 -99 -117 -98 -109 16 127
298 620 466 960 486 989 10 14 39 74 65 133 42 99 162 349 186 391 17 30 27
19 53 -55z m2180 -89 c78 -12 180 -46 175 -58 -2 -5 -31 -34 -66 -66 -70 -64
-60 -64 -152 -7 -82 52 -179 65 -264 36 -52 -18 -58 -15 -74 33 -13 39 -9 43
68 59 71 16 222 17 313 3z m-14923 -25 c30 -14 84 -37 120 -51 36 -14 88 -34
115 -45 56 -22 192 -68 215 -73 8 -2 44 -13 80 -25 117 -39 431 -117 560 -140
188 -33 336 -54 480 -70 53 -6 107 -12 120 -15 14 -3 68 -8 120 -11 52 -3 129
-9 170 -12 145 -13 879 -3 955 13 22 4 87 13 155 20 25 2 89 9 144 15 54 6
101 9 104 6 2 -3 13 -61 23 -128 10 -68 27 -179 38 -248 11 -69 23 -147 26
-175 4 -27 9 -58 11 -68 3 -10 12 -59 19 -110 40 -269 66 -436 89 -562 13 -77
39 -230 56 -340 17 -110 38 -236 45 -280 8 -44 19 -121 26 -170 12 -89 12 -91
-15 -150 -21 -47 -40 -71 -89 -110 -34 -27 -67 -54 -73 -60 -9 -9 -46 -34
-154 -105 -42 -27 -211 -106 -277 -129 -299 -104 -641 -106 -973 -4 -110 34
-112 36 -104 89 3 24 3 55 0 69 -6 22 -11 26 -39 23 -26 -2 -36 -11 -53 -43
-17 -32 -26 -39 -45 -37 -44 5 -55 26 -41 77 26 97 8 148 -46 129 -20 -7 -30
-20 -40 -57 -22 -79 -31 -77 -183 25 -390 262 -744 657 -1029 1148 -91 157
-243 467 -305 625 -26 66 -53 134 -60 150 -64 149 -244 807 -230 843 7 18 23
15 85 -14z m15427 -146 c152 -75 287 -252 361 -473 104 -307 81 -637 -57 -820
-54 -72 -166 -125 -252 -120 -59 4 -58 2 -58 154 -1 220 -37 429 -114 656 -54
159 -203 443 -247 470 -32 20 13 88 85 131 88 51 182 52 282 2z m-645 -32
c165 -59 355 -348 452 -689 26 -89 26 -92 56 -247 24 -122 33 -358 19 -470
-10 -83 -57 -250 -71 -250 -4 0 -8 -5 -8 -10 0 -25 -51 -90 -71 -90 -18 0 -20
4 -14 28 18 62 20 111 8 177 -13 72 -16 80 -53 175 -12 30 -32 87 -45 125 -13
39 -33 91 -44 117 -22 48 -37 88 -135 358 -31 85 -70 189 -86 230 -116 299
-189 502 -184 515 16 41 104 56 176 31z m-10633 -78 c38 -129 119 -278 213
-395 32 -39 58 -76 58 -82 0 -6 -10 -11 -22 -11 -74 0 -326 -23 -402 -36 -49
-8 -95 -13 -102 -10 -7 3 -31 29 -53 60 -44 59 -69 73 -100 57 -32 -18 -35
-49 -10 -103 14 -29 19 -52 13 -57 -15 -15 -184 -84 -190 -78 -11 11 -87 538
-78 547 5 5 77 22 159 39 83 17 218 48 300 70 199 52 199 52 214 -1z m8919
-578 c66 -190 186 -536 282 -810 39 -112 70 -213 68 -224 -2 -14 -49 -46 -163
-111 -404 -230 -715 -406 -770 -435 -33 -18 -64 -36 -70 -40 -48 -35 -410
-230 -420 -227 -7 3 -15 31 -19 64 -24 208 -88 523 -142 700 -23 77 -23 85 -9
112 35 69 290 373 428 512 211 212 709 623 747 616 9 -1 34 -60 68 -157z
m-14107 -35 c57 -4 106 -8 109 -10 3 -2 34 -6 70 -10 36 -4 70 -10 75 -13 6
-4 33 -9 60 -13 87 -12 179 -36 183 -48 2 -6 8 -9 13 -5 8 5 27 -1 124 -35 61
-22 309 -143 313 -153 2 -5 12 -8 21 -8 10 0 28 -11 40 -24 19 -20 25 -42 32
-113 5 -48 12 -95 15 -105 2 -9 0 -19 -6 -23 -7 -4 -8 -11 -1 -18 8 -11 36
-116 56 -215 7 -32 6 -33 -14 -23 -12 7 -21 15 -21 19 0 15 -68 39 -84 30 -9
-5 -21 -6 -26 -3 -6 3 -10 -1 -10 -9 0 -9 -6 -16 -12 -17 -8 0 -9 -2 -2 -5 6
-2 8 -18 6 -34 -3 -23 0 -30 13 -30 11 0 15 -5 11 -15 -3 -9 0 -15 9 -15 8 0
20 -9 27 -20 7 -11 17 -20 23 -20 5 0 26 -22 45 -47 19 -26 62 -74 95 -108 63
-64 113 -121 155 -177 13 -18 38 -46 55 -63 25 -25 47 -52 108 -130 4 -5 21
-26 37 -45 16 -19 30 -38 30 -41 0 -3 11 -19 26 -35 175 -199 486 -617 647
-869 32 -49 100 -155 152 -235 52 -80 108 -171 125 -202 17 -32 34 -58 38 -58
8 0 33 -39 143 -226 68 -117 114 -193 140 -233 15 -25 26 -48 24 -52 -3 -4
-28 -14 -57 -24 -94 -30 -231 -101 -322 -166 -152 -109 -337 -311 -447 -488
-18 -28 -38 -51 -45 -51 -7 0 -28 13 -46 29 -68 58 -117 67 -144 26 -24 -37
-11 -69 49 -113 108 -80 98 -95 -35 -52 -160 53 -228 50 -228 -11 0 -44 19
-57 141 -95 67 -21 123 -43 126 -50 2 -6 -13 -54 -35 -105 -21 -52 -55 -148
-76 -214 -20 -66 -44 -140 -52 -165 -9 -25 -17 -52 -18 -60 -2 -8 -10 -40 -19
-70 -9 -30 -18 -70 -19 -87 -1 -18 -5 -33 -9 -33 -7 0 -14 -56 -25 -195 -4
-44 -13 -100 -20 -124 -9 -32 -10 -49 -3 -58 6 -6 8 -17 4 -22 -3 -6 -6 -47
-7 -91 0 -44 -4 -83 -10 -86 -5 -3 -7 -18 -3 -33 3 -14 8 -78 10 -141 7 -158
12 -226 24 -289 6 -29 9 -56 6 -60 -2 -4 5 -26 16 -48 16 -33 28 -43 60 -51
33 -8 39 -7 39 6 0 8 3 13 6 10 3 -4 14 2 24 12 14 14 17 30 14 70 -2 29 -8
58 -14 66 -6 7 -10 18 -9 26 3 13 -10 148 -17 183 -6 30 -6 403 1 455 3 25 7
67 10 94 2 27 10 53 17 57 7 5 8 9 2 9 -19 0 -7 92 38 285 5 22 9 46 10 53 1
6 4 12 8 12 4 0 5 12 2 28 -5 35 28 164 77 300 237 656 647 1089 1091 1152 41
5 93 8 115 5 22 -3 56 -8 75 -10 72 -8 194 -48 229 -74 l24 -19 -68 -48 c-209
-149 -407 -358 -558 -589 -180 -277 -326 -630 -407 -984 -41 -182 -42 -208 -8
-234 38 -29 74 -12 86 40 112 466 150 579 277 838 207 422 486 735 801 901 71
37 194 87 194 78 0 -2 16 2 35 10 19 8 56 18 82 21 26 4 55 9 63 12 19 8 212
12 225 4 18 -9 50 -8 57 2 4 7 12 6 22 -2 9 -8 16 -10 16 -5 0 5 5 2 10 -6 6
-10 10 -11 10 -2 0 6 7 12 15 12 8 0 15 -4 15 -9 0 -4 10 -8 23 -7 14 1 21 -4
19 -13 -2 -11 0 -12 11 -3 11 10 29 7 83 -11 93 -32 278 -130 282 -149 2 -8
-21 -33 -53 -58 -141 -109 -282 -292 -380 -495 -66 -136 -98 -227 -135 -375
-58 -237 -65 -300 -65 -615 1 -312 11 -406 71 -655 14 -58 29 -121 34 -140 4
-19 17 -64 29 -100 11 -36 21 -73 21 -82 0 -10 4 -18 10 -18 12 0 42 -69 35
-80 -3 -5 -1 -11 4 -15 6 -3 8 -12 4 -20 -6 -16 -58 -21 -67 -6 -7 10 -66 -9
-66 -21 0 -4 -6 -8 -14 -8 -7 0 -19 -14 -26 -30 -11 -27 -10 -34 11 -66 22
-33 27 -35 66 -31 47 5 56 -5 44 -50 -12 -43 5 -70 48 -76 20 -2 47 1 61 8 14
7 31 10 38 8 6 -3 12 0 12 6 0 6 6 11 13 11 15 0 62 -48 54 -56 -3 -3 6 -17
19 -31 13 -14 35 -50 48 -79 15 -32 31 -54 40 -54 9 0 16 -3 16 -7 0 -5 20
-30 45 -57 25 -27 42 -53 38 -59 -4 -6 0 -8 10 -4 11 4 17 1 17 -7 0 -7 12
-24 28 -39 15 -14 32 -31 37 -37 6 -6 34 -29 63 -51 28 -22 52 -48 52 -57 0
-8 3 -12 7 -9 3 4 13 1 22 -7 9 -8 18 -14 21 -14 8 2 50 -26 50 -32 0 -3 -30
-21 -67 -40 -38 -19 -70 -37 -73 -41 -3 -4 -19 -11 -35 -15 -17 -3 -38 -13
-47 -22 -10 -8 -24 -12 -33 -8 -9 3 -13 2 -10 -4 3 -6 0 -10 -8 -10 -8 0 -17
-7 -21 -15 -3 -8 -16 -15 -28 -15 -13 0 -32 -6 -43 -13 -28 -19 -178 -77 -198
-77 -10 0 -17 -5 -17 -11 0 -6 -9 -9 -20 -6 -11 3 -20 1 -20 -4 0 -5 -6 -9
-12 -9 -7 -1 -31 -9 -53 -20 -22 -11 -49 -19 -61 -20 -12 0 -43 -11 -69 -25
-26 -14 -55 -25 -64 -24 -9 1 -19 1 -23 0 -5 0 -11 -1 -15 -2 -5 0 -13 -5 -19
-10 -9 -7 -98 -32 -164 -46 -14 -2 -32 -7 -40 -10 -8 -3 -24 -8 -35 -10 -11
-2 -58 -13 -105 -24 -47 -12 -95 -21 -107 -21 -13 0 -23 -4 -23 -8 0 -11 -34
-7 -42 5 -5 6 -8 4 -8 -5 0 -12 -14 -15 -64 -15 -36 1 -62 -3 -60 -7 3 -4 -8
-7 -23 -7 -50 1 -142 -9 -153 -16 -6 -4 -18 -1 -27 7 -13 10 -15 10 -9 0 6
-10 -3 -13 -36 -13 -23 0 -140 -3 -259 -5 -195 -5 -218 -4 -234 12 -11 11 -19
14 -23 7 -4 -6 -29 -10 -57 -8 -98 5 -210 17 -225 25 -8 4 -29 8 -46 8 -17 0
-57 7 -90 15 -32 9 -104 23 -159 32 -55 10 -104 21 -110 25 -5 4 -28 11 -50
15 -22 4 -44 10 -50 15 -5 4 -23 10 -40 13 -64 11 -166 45 -253 84 -19 8 -68
27 -110 43 -115 42 -152 59 -152 71 0 5 -6 9 -13 7 -14 -3 -110 42 -115 55 -2
4 -15 7 -28 7 -13 0 -24 5 -24 10 0 6 -5 10 -10 10 -10 0 -71 34 -158 87 -21
13 -55 32 -77 42 -71 36 -269 168 -325 217 -17 16 -37 29 -46 30 -8 1 -27 15
-42 31 -15 16 -52 46 -82 68 -30 22 -62 47 -70 56 -8 9 -20 18 -27 20 -10 4
-45 35 -203 178 -24 23 -48 41 -52 41 -4 0 -8 7 -8 15 0 8 -5 15 -11 15 -6 0
-24 12 -39 28 -16 15 -36 33 -45 40 -8 7 -12 19 -9 25 4 7 3 9 -1 4 -10 -9
-115 91 -115 110 0 7 -9 13 -20 13 -11 0 -20 4 -20 10 0 5 -13 23 -30 40 -16
17 -30 35 -30 40 0 6 -7 10 -15 10 -8 0 -14 4 -12 8 1 4 -15 26 -37 47 -21 22
-55 60 -75 85 -20 25 -51 60 -68 77 -18 18 -33 36 -33 41 0 5 -13 21 -30 37
-16 16 -30 33 -30 39 0 5 -15 23 -33 40 -34 31 -52 63 -48 81 2 5 0 7 -4 3 -8
-7 -44 24 -39 33 2 4 -13 26 -34 50 -21 24 -49 60 -62 79 -32 46 -41 57 -67
86 -12 13 -24 33 -28 44 -3 11 -11 20 -16 20 -5 0 -9 9 -9 20 0 10 -9 24 -20
30 -11 6 -22 21 -26 34 -3 13 -17 34 -30 47 -13 12 -24 26 -24 31 0 4 -9 17
-20 28 -11 11 -20 27 -20 35 0 8 -4 15 -10 15 -5 0 -10 5 -10 11 0 6 -12 26
-26 45 -15 19 -22 34 -18 34 5 0 2 6 -6 13 -19 14 -70 101 -70 117 0 6 -6 17
-12 24 -34 35 -56 65 -51 69 6 7 -18 48 -39 68 -10 9 -18 21 -18 27 0 13 -31
72 -47 90 -7 7 -13 18 -13 23 0 6 -11 25 -25 43 -14 18 -22 36 -18 39 3 4 1 7
-5 7 -7 0 -12 6 -12 13 0 7 -13 31 -29 53 -30 40 -31 43 -31 69 0 8 -8 23 -18
33 -10 10 -24 33 -32 52 -7 19 -19 42 -27 51 -7 8 -13 23 -13 31 0 9 -3 18 -7
20 -9 4 -73 130 -73 144 0 5 -7 23 -16 39 -40 73 -74 147 -74 160 0 8 -4 15
-9 15 -5 0 -12 12 -16 27 -4 16 -12 34 -18 42 -11 13 -25 45 -50 119 -7 17
-15 32 -19 32 -5 0 -8 6 -8 14 0 8 -14 45 -31 83 -17 37 -39 87 -49 109 -11
23 -22 55 -26 70 -4 16 -18 46 -31 66 -12 21 -23 46 -23 56 0 11 -13 46 -30
78 -16 32 -30 69 -30 81 0 12 -4 24 -8 27 -5 3 -15 31 -22 63 -7 32 -19 82
-26 112 -8 30 -12 57 -9 59 3 3 1 10 -4 16 -13 16 -21 55 -33 166 -5 52 -12
118 -15 145 -13 122 -7 495 8 495 5 0 9 38 9 84 0 55 5 94 15 112 8 16 15 39
15 50 0 34 30 196 42 231 6 18 15 30 20 27 4 -3 9 11 9 30 2 40 2 43 13 68 4
9 8 22 10 30 1 7 4 18 7 23 4 6 12 31 20 58 7 26 17 47 21 47 4 0 8 6 8 13 0
7 9 30 20 52 11 21 25 53 31 72 6 18 15 33 20 33 5 0 9 7 9 15 0 18 89 189
102 193 4 2 8 8 8 14 0 8 56 95 70 108 3 3 15 19 25 37 11 17 41 54 68 81 26
28 47 54 47 59 0 4 18 25 40 46 22 20 40 42 40 47 0 6 4 10 9 10 5 0 38 29 74
65 35 35 67 61 71 58 3 -4 6 1 6 10 0 9 4 17 10 17 5 0 25 14 43 30 19 17 38
30 42 30 3 0 28 18 54 40 26 22 53 40 59 40 7 0 12 5 12 10 0 6 9 10 19 10 11
0 32 10 48 23 28 24 68 46 155 86 26 12 50 26 53 32 4 5 17 9 30 9 14 0 40 9
60 20 20 11 42 20 50 20 9 0 23 4 33 9 32 16 67 29 92 35 98 20 165 38 176 47
8 7 14 7 19 -1 3 -5 16 -10 28 -10 16 0 18 3 8 9 -14 9 67 18 233 26 49 2 91
7 94 9 2 3 8 4 12 1 3 -2 53 -7 111 -10z m5602 -26 c20 -5 37 -14 37 -19 0 -4
13 -11 28 -15 15 -3 40 -17 55 -30 14 -14 31 -25 37 -25 5 0 10 -4 10 -10 0
-5 9 -10 19 -10 11 0 26 -6 33 -13 7 -7 39 -21 70 -31 31 -9 58 -21 60 -26 3
-8 144 -70 160 -70 5 0 23 -9 39 -21 16 -11 35 -22 42 -23 7 -2 28 -10 47 -19
19 -8 59 -26 88 -38 28 -12 52 -27 52 -31 0 -5 4 -6 10 -3 12 7 70 -22 70 -36
0 -6 4 -7 10 -4 15 9 110 -38 111 -55 2 -32 8 -118 14 -195 3 -44 7 -102 9
-130 2 -27 9 -113 15 -190 7 -77 14 -176 17 -220 2 -44 7 -105 9 -135 3 -30 9
-122 15 -205 5 -82 11 -166 14 -185 4 -31 14 -169 22 -300 8 -136 13 -197 18
-210 3 -8 7 -69 10 -135 4 -124 13 -271 21 -340 2 -22 11 -141 20 -265 20
-276 21 -287 33 -380 5 -41 8 -86 6 -100 -1 -14 -3 -28 -3 -32 -1 -12 -51 -9
-51 2 0 6 -13 10 -28 10 -16 0 -32 3 -35 7 -4 3 -19 8 -34 10 -80 10 -122 15
-163 18 -54 5 -90 10 -150 22 -25 5 -75 8 -112 8 -37 -1 -65 1 -63 4 4 7 -149
5 -269 -4 -68 -5 -91 -3 -97 7 -7 10 -9 10 -9 1 0 -8 -12 -13 -28 -13 -16 0
-31 -3 -34 -6 -3 -3 -34 -7 -69 -9 -35 -3 -75 -7 -89 -11 -14 -4 -49 -9 -77
-11 -29 -3 -53 -9 -53 -15 0 -5 -10 -8 -22 -7 -13 2 -32 -2 -43 -7 -11 -6 -35
-11 -53 -12 -19 -2 -41 -9 -49 -18 -10 -10 -25 -13 -40 -9 -16 4 -22 2 -18 -5
3 -5 -3 -10 -14 -10 -11 0 -23 -5 -26 -10 -4 -6 -10 -8 -13 -6 -4 2 -25 -4
-47 -14 -22 -11 -43 -19 -46 -20 -4 0 -24 -8 -45 -17 -22 -9 -48 -18 -58 -20
-11 -2 -27 -10 -36 -18 -9 -8 -24 -15 -33 -15 -9 0 -17 -4 -17 -8 0 -5 -16
-14 -36 -20 -34 -10 -37 -9 -80 32 -24 23 -44 41 -44 38 0 -2 -12 4 -27 13
-15 10 -61 36 -102 57 -42 22 -80 43 -86 47 -5 4 -37 15 -70 25 -149 46 -146
43 -139 85 6 39 -10 83 -42 115 -20 20 -101 19 -108 -1 -3 -8 -10 -12 -15 -9
-5 3 -9 0 -8 -7 0 -6 -1 -38 -1 -69 l-2 -58 -93 0 c-52 0 -114 -6 -138 -13
-24 -8 -50 -12 -57 -9 -6 2 -12 -1 -12 -8 0 -6 -4 -9 -9 -6 -5 3 -27 -1 -50
-9 -23 -8 -48 -12 -56 -9 -8 4 -15 2 -15 -4 0 -9 -22 -19 -64 -28 -11 -3 -27
-11 -36 -19 -21 -19 -67 -19 -78 0 -4 9 -17 17 -28 19 -11 2 -35 13 -54 24
-19 11 -46 23 -60 27 -14 5 -36 15 -49 24 -14 9 -36 14 -49 12 -14 -1 -29 3
-34 11 -7 10 -11 10 -14 1 -5 -11 -12 -11 -51 3 -10 4 -47 6 -83 6 -98 -1
-106 2 -132 56 -13 26 -27 50 -32 53 -18 14 -8 63 17 85 36 30 40 86 8 113
-26 22 -57 20 -100 -6 -17 -11 -26 -12 -35 -4 -13 14 -94 157 -102 184 -4 9
-10 17 -15 17 -5 0 -9 6 -9 14 0 8 -7 16 -15 20 -8 3 -15 12 -15 21 0 8 -4 15
-9 15 -5 0 -11 8 -15 18 -7 21 -27 53 -42 67 -22 20 -55 75 -46 75 13 0 206
-112 210 -122 2 -4 14 -8 28 -8 22 0 82 -28 112 -52 7 -6 15 -8 19 -4 3 3 14
-1 24 -10 10 -9 30 -16 44 -16 14 0 28 -4 31 -9 3 -5 14 -9 25 -9 10 0 19 -4
19 -10 0 -5 6 -7 13 -4 22 8 69 -14 61 -28 -5 -10 -4 -10 5 -2 8 7 28 8 59 2
219 -38 242 -40 427 -38 320 4 335 5 335 13 0 4 13 7 28 7 15 0 32 4 38 10 5
5 27 10 49 11 22 2 47 6 55 10 8 4 62 20 120 35 58 16 108 32 111 37 3 5 8 8
10 7 2 -1 18 4 34 11 17 7 32 13 35 14 3 0 29 13 58 28 28 15 52 24 52 20 0
-5 4 -3 8 2 7 10 28 23 86 54 34 18 40 23 81 56 17 14 34 25 39 25 5 0 31 19
57 43 27 23 62 53 78 67 17 14 36 35 42 47 7 13 20 25 31 29 10 3 18 11 18 17
0 7 16 30 36 52 20 22 40 49 45 60 5 11 23 38 39 60 16 22 29 46 30 54 0 8 6
22 14 30 17 20 66 135 66 156 0 9 8 28 18 42 12 19 13 25 3 19 -10 -7 -12 -5
-6 3 4 7 9 34 12 59 2 26 8 62 13 80 5 17 5 32 1 32 -6 0 -11 24 -10 55 2 61
5 82 13 78 5 -4 6 -1 2 6 -12 19 -25 72 -17 67 4 -3 8 5 8 17 2 17 0 19 -7 7
-7 -11 -10 -8 -10 13 0 15 -7 41 -15 58 -9 16 -13 34 -10 39 4 6 0 13 -8 16
-9 3 -13 13 -9 26 2 11 -1 24 -8 28 -15 9 -24 70 -11 70 5 0 11 9 14 21 3 12
10 18 15 15 5 -3 9 12 8 34 0 22 -4 40 -8 40 -5 0 -8 6 -8 14 0 16 -34 29 -69
26 -16 -1 -22 3 -18 12 2 7 10 12 16 11 6 -2 11 2 11 7 0 6 9 23 20 39 50 67
-44 143 -129 104 -20 -9 -38 -20 -41 -25 -8 -11 -50 2 -51 16 0 6 -16 25 -36
41 -19 17 -55 49 -80 73 -25 23 -52 42 -60 42 -8 0 -11 5 -8 10 3 6 2 10 -3
10 -14 0 -22 38 -8 44 7 3 8 7 0 13 -12 10 -34 102 -34 146 0 18 -7 65 -15
105 -9 40 -16 94 -17 120 -1 26 -5 52 -10 59 -5 6 -8 17 -7 25 1 7 -1 29 -4
48 -17 92 -16 99 11 119 59 42 293 121 358 121 17 0 34 3 38 7 7 8 8 8 126 17
46 4 86 9 89 11 9 10 287 5 324 -6z m-4386 -326 c9 -21 17 -51 19 -68 2 -16
14 -45 27 -65 24 -36 67 -124 67 -136 0 -4 6 -12 14 -18 15 -12 76 -120 76
-136 0 -5 11 -26 25 -46 14 -20 22 -40 20 -44 -3 -5 0 -12 6 -16 8 -4 9 -3 5
4 -4 7 -5 12 -2 12 2 0 15 -21 28 -47 13 -27 29 -52 35 -56 7 -4 13 -15 13
-22 0 -8 4 -15 8 -15 4 0 16 -15 27 -32 10 -18 34 -52 52 -76 20 -26 30 -49
26 -59 -4 -11 -3 -14 5 -9 7 4 15 0 19 -11 3 -10 18 -29 32 -43 15 -14 49 -52
76 -85 118 -142 314 -345 435 -449 202 -175 377 -292 585 -392 198 -95 367
-148 570 -178 135 -20 557 -20 598 1 15 7 33 13 40 12 17 -3 69 12 85 24 6 5
12 7 12 4 0 -6 97 27 107 36 3 4 13 7 22 7 9 0 27 9 41 20 14 11 35 20 48 20
12 0 22 5 22 10 0 6 4 10 9 10 6 0 30 14 54 30 25 17 48 30 52 30 3 0 21 11
39 25 18 14 36 22 39 18 4 -3 7 -2 7 4 0 6 19 23 43 39 23 16 51 38 63 50 11
11 28 20 38 18 12 -2 16 2 12 12 -3 8 0 14 5 14 15 0 77 69 85 94 4 12 12 28
19 36 18 21 48 179 37 193 -9 12 -17 61 -27 157 -2 25 -8 74 -13 110 -5 36 -7
71 -4 79 4 9 1 12 -7 7 -9 -6 -11 3 -9 33 1 23 -3 46 -10 53 -12 12 -17 78 -7
78 19 0 126 -130 118 -143 -4 -6 0 -8 9 -5 10 4 20 -5 31 -28 9 -19 21 -34 26
-34 13 0 54 -107 47 -125 -3 -8 0 -14 6 -12 13 2 56 -109 61 -158 2 -17 6 -35
10 -41 3 -6 4 -62 2 -125 -3 -63 -5 -124 -5 -136 0 -13 -4 -23 -9 -23 -5 0 -9
-6 -8 -12 1 -38 -4 -59 -14 -53 -6 4 -9 1 -8 -6 1 -8 -1 -23 -6 -34 -22 -58
-31 -75 -37 -75 -4 0 -5 -6 -2 -14 3 -7 -13 -40 -35 -71 -23 -32 -41 -63 -41
-68 0 -5 -21 -31 -47 -57 -27 -26 -77 -78 -113 -114 -35 -36 -68 -66 -73 -66
-5 0 -34 -20 -65 -44 -61 -47 -121 -83 -192 -116 -144 -67 -211 -92 -305 -114
-33 -8 -76 -19 -95 -25 -69 -22 -351 -52 -508 -56 -333 -7 -738 130 -1017 344
-90 69 -251 236 -313 326 -112 162 -185 259 -280 378 -54 67 -124 158 -157
202 -33 44 -63 82 -66 85 -3 3 -14 20 -24 38 -11 17 -23 32 -27 32 -4 0 -8 5
-8 11 0 5 -22 38 -50 72 -27 34 -50 67 -50 74 0 7 -5 13 -10 13 -6 0 -13 6
-16 13 -3 8 -30 40 -60 73 -53 58 -84 105 -84 129 0 7 -9 24 -20 38 -11 14
-20 31 -20 37 0 11 -25 70 -51 122 -5 10 -9 28 -9 41 0 13 -3 27 -7 31 -5 4
-8 11 -9 14 0 4 -4 14 -7 22 -4 8 -13 40 -21 70 -8 30 -20 72 -26 93 -6 22 -9
41 -6 45 3 3 1 11 -5 19 -9 10 -8 13 1 13 10 0 10 4 -2 18 -13 15 -16 75 -9
185 2 29 21 19 38 -20z m7768 -1062 c66 -26 368 -148 670 -271 303 -122 566
-234 585 -248 57 -42 249 -201 333 -276 118 -105 122 -114 137 -346 6 -107 16
-220 20 -250 9 -64 8 -67 -93 -191 -73 -90 -204 -282 -248 -364 -14 -27 -36
-66 -48 -85 -11 -19 -25 -46 -31 -59 -6 -13 -23 -43 -39 -65 -15 -23 -34 -56
-42 -74 -7 -18 -20 -32 -27 -32 -7 0 -15 -7 -18 -15 -4 -8 -10 -15 -16 -15 -5
0 -16 -7 -24 -15 -21 -20 -140 -105 -148 -105 -4 0 -17 -9 -29 -21 -12 -11
-35 -28 -52 -36 -16 -9 -37 -23 -45 -32 -8 -9 -27 -22 -42 -30 -15 -8 -37 -23
-49 -34 -12 -12 -45 -36 -73 -56 -28 -19 -57 -41 -64 -48 -7 -7 -17 -13 -21
-13 -4 0 -16 -8 -27 -18 -10 -10 -64 -49 -119 -87 -97 -68 -112 -79 -138 -100
-7 -6 -31 -20 -54 -32 -23 -11 -41 -22 -39 -24 2 -2 -7 -12 -20 -22 -13 -10
-24 -13 -24 -7 0 6 -5 8 -10 5 -6 -4 -8 -10 -5 -15 4 -7 -56 -60 -70 -60 -3 0
-15 -9 -27 -20 -33 -31 -48 -25 -48 18 0 21 -5 43 -12 50 -9 9 -9 12 1 12 10
0 11 4 3 13 -6 7 -11 73 -11 159 -1 81 -6 159 -11 172 -5 13 -9 73 -10 133 -1
119 -3 154 -20 418 -7 99 -13 216 -14 260 -5 160 -8 211 -16 265 -5 30 -11
125 -15 210 -10 297 -15 356 -39 515 -8 55 -20 197 -26 315 -6 118 -16 288
-21 378 -10 157 -9 192 8 192 4 0 62 -22 128 -49z m2395 -285 c0 -3 -4 -8 -10
-11 -5 -3 -10 -1 -10 4 0 6 5 11 10 11 6 0 10 -2 10 -4z m3135 -345 c-6 -10
-11 -56 -20 -191 -2 -25 -4 -45 -5 -45 -1 0 -4 -20 -5 -45 -1 -25 -5 -67 -9
-95 -14 -112 -19 -161 -19 -180 1 -21 -15 -180 -23 -230 -7 -45 -22 -172 -29
-245 -3 -36 -9 -85 -12 -110 -4 -25 -6 -49 -5 -53 10 -41 -41 -287 -60 -287
-4 0 -5 -6 -2 -13 2 -7 -7 -35 -21 -62 -14 -28 -25 -53 -25 -57 0 -9 -101
-234 -136 -301 -7 -16 -14 -34 -14 -42 0 -7 -7 -18 -15 -25 -8 -7 -15 -19 -15
-26 0 -16 -51 -123 -80 -169 -11 -16 -28 -49 -39 -72 -11 -24 -23 -43 -27 -43
-4 0 -16 10 -28 23 -28 28 -85 77 -90 77 -2 0 -34 29 -69 64 -36 35 -79 73
-96 85 -17 12 -60 51 -95 87 -36 35 -69 64 -74 64 -4 0 -34 25 -65 55 -31 30
-94 87 -139 126 -46 39 -104 91 -130 115 -26 24 -48 44 -50 44 -15 0 -168 161
-168 176 0 11 10 53 21 94 11 41 22 84 23 95 2 11 9 58 15 105 7 47 15 101 18
120 4 19 6 38 5 41 -4 21 20 124 30 131 11 6 11 8 0 8 -10 0 -11 20 -5 93 4
50 6 101 5 112 -8 118 -1 129 91 156 39 12 76 24 82 27 10 6 21 9 62 15 12 2
28 9 37 16 9 8 16 10 16 6 0 -4 6 -2 14 4 8 6 18 11 22 9 5 -1 19 3 30 10 12
6 24 9 26 7 5 -5 47 10 113 40 17 7 48 16 69 19 22 4 45 11 53 17 7 6 20 9 28
5 8 -3 15 -1 15 4 0 7 47 27 83 34 7 2 26 8 42 15 70 27 115 40 160 46 11 2
45 14 75 29 29 14 61 26 70 26 18 0 171 53 207 72 13 6 26 8 30 5 3 -4 13 -1
21 6 20 16 95 35 106 26 4 -4 5 -12 1 -18z m-3864 -43 c35 -12 49 -24 49 -45
0 -23 -26 -14 -60 22 -38 39 -37 40 11 23z m917 -668 c0 -9 -3 -7 -8 5 -5 11
-8 29 -8 40 0 16 2 15 8 -5 4 -14 8 -32 8 -40z m-801 -333 c3 -32 20 -108 32
-138 8 -22 6 -31 -10 -48 -11 -12 -24 -19 -30 -16 -5 4 -9 1 -9 -4 0 -6 -4
-11 -10 -11 -5 0 -18 -8 -28 -17 -30 -28 -66 -57 -84 -68 -9 -5 -49 -34 -88
-62 -38 -29 -70 -48 -70 -43 0 13 77 149 96 171 8 8 14 20 14 25 0 5 10 20 23
34 12 14 30 41 40 61 9 20 39 57 67 83 30 28 48 52 44 59 -4 7 -3 8 2 4 5 -5
10 -18 11 -30z m-3497 -437 c0 -5 -5 -10 -11 -10 -5 0 -7 5 -4 10 3 6 8 10 11
10 2 0 4 -4 4 -10z m-990 -55 c524 -35 1082 -234 1450 -518 90 -69 257 -239
312 -317 87 -123 151 -267 178 -394 17 -84 15 -234 -5 -319 -23 -98 -103 -261
-168 -342 -84 -104 -245 -232 -261 -207 -2 4 -5 51 -5 104 -1 78 -11 183 -25
253 -13 61 -71 215 -95 251 -17 25 -31 47 -31 50 0 8 -87 130 -146 205 -146
184 -425 396 -579 438 -51 14 -88 -6 -83 -47 3 -29 21 -41 110 -73 206 -73
533 -392 626 -609 11 -25 29 -65 40 -90 57 -122 82 -243 82 -393 -1 -214 -59
-393 -162 -499 -50 -51 -153 -106 -239 -128 -65 -16 -248 -5 -270 17 -5 5 -12
40 -18 78 -5 39 -11 77 -14 85 -2 8 -7 29 -11 45 -14 56 -56 145 -103 223 -18
29 -33 56 -33 61 0 4 -9 16 -20 26 -11 10 -20 23 -20 29 -2 25 -164 208 -278
313 -152 139 -216 182 -334 226 -198 74 -252 80 -264 30 -9 -35 19 -58 93 -77
34 -8 98 -29 143 -47 218 -84 522 -399 668 -694 109 -220 100 -360 -38 -573
-81 -126 -187 -216 -321 -273 -67 -29 -80 -31 -159 -27 -94 5 -154 27 -257 95
-74 49 -189 158 -244 231 -99 132 -241 259 -341 305 -73 34 -178 14 -178 -34
0 -46 17 -58 78 -56 46 1 65 -4 89 -21 17 -12 35 -22 41 -22 17 0 162 -148
175 -179 9 -21 11 -48 6 -84 -4 -28 -7 -106 -7 -172 0 -141 -13 -175 -93 -254
-84 -83 -192 -95 -326 -35 -17 8 -35 14 -41 14 -23 0 -173 110 -230 169 -248
254 -443 726 -518 1251 -25 173 -30 550 -9 726 38 332 118 581 250 780 83 124
165 193 320 269 161 79 297 125 490 163 265 54 478 67 775 47z m8054 -470 c-7
-82 -20 -246 -29 -364 -17 -224 -20 -241 -39 -241 -19 0 -206 180 -206 199 0
10 35 82 78 162 42 79 90 173 106 209 70 160 90 200 96 193 4 -4 1 -75 -6
-158z m-3225 33 c5 -15 4 -30 -5 -43 -16 -24 -74 -202 -74 -227 0 -9 -4 -19
-9 -22 -5 -3 -16 -38 -25 -78 -28 -119 -39 -162 -44 -173 -3 -5 -7 -25 -9 -45
-2 -19 -8 -66 -13 -105 -8 -63 -33 -452 -33 -515 1 -72 15 -248 29 -345 34
-250 43 -275 110 -275 47 0 84 39 84 90 0 20 -3 40 -7 43 -3 4 -8 28 -10 54
-1 26 -8 62 -14 80 -6 18 -11 76 -12 128 -1 52 -6 95 -11 95 -8 0 -1 369 10
525 5 67 58 364 71 395 3 8 7 18 7 22 1 3 4 9 8 13 4 4 4 13 1 21 -3 8 0 21 7
29 7 8 10 15 7 15 -6 0 34 118 50 145 11 19 12 19 32 1 12 -11 21 -25 21 -33
0 -7 7 -13 15 -13 8 0 15 -5 15 -11 0 -5 4 -8 9 -4 5 3 12 1 15 -4 7 -11 136
-75 151 -76 15 0 18 -43 6 -73 -6 -15 -13 -45 -16 -67 -10 -88 -25 -173 -41
-225 -8 -30 -22 -89 -29 -130 -8 -41 -17 -88 -20 -105 -3 -16 -20 -104 -38
-195 -17 -91 -35 -166 -39 -168 -4 -2 -8 -23 -8 -47 0 -24 -4 -46 -9 -49 -4
-3 -11 -28 -15 -56 -4 -28 -18 -100 -31 -161 -14 -60 -26 -124 -28 -142 -3
-18 -7 -39 -10 -47 -3 -8 -9 -32 -12 -53 -3 -21 -10 -47 -15 -57 -5 -10 -10
-29 -9 -42 1 -48 -31 -190 -45 -200 -7 -5 -7 -8 2 -8 9 0 10 -5 3 -19 -6 -10
-12 -34 -14 -55 -2 -20 -7 -39 -10 -43 -4 -3 -7 -19 -7 -35 0 -15 -3 -28 -7
-28 -5 0 -8 -10 -9 -22 -2 -50 -27 -184 -35 -192 -5 -6 -9 -23 -9 -38 0 -15
-3 -28 -7 -29 -53 -7 -139 -6 -183 2 -30 6 -77 12 -103 15 -98 9 -316 83 -337
114 -3 4 -41 36 -85 70 -44 35 -83 68 -87 74 -4 6 -8 8 -8 4 0 -5 -8 0 -18 10
-11 9 -28 24 -38 32 -11 8 -49 37 -84 65 -36 27 -69 55 -73 62 -4 7 -14 13
-22 13 -8 0 -19 8 -24 18 -6 9 -11 13 -11 8 0 -6 -6 -3 -12 5 -18 22 -114 99
-123 99 -4 0 -24 15 -44 33 -39 33 -49 42 -141 117 -95 77 -94 74 -62 109 14
17 32 31 40 31 7 0 10 4 7 10 -3 5 12 28 34 51 23 22 41 44 41 47 0 9 63 85
111 135 20 20 35 37 33 37 -5 0 45 57 88 102 14 15 28 32 30 38 3 9 102 121
176 197 12 13 22 26 22 29 0 3 18 26 40 51 22 25 40 49 40 53 0 4 10 10 22 13
12 4 19 9 16 13 -4 3 6 19 22 34 16 15 26 31 23 34 -4 3 0 6 8 7 8 0 28 21 45
47 17 26 35 47 40 46 5 -1 17 13 28 30 10 17 29 41 42 53 13 12 24 26 24 32 0
5 11 18 23 28 13 10 29 29 36 42 7 13 36 49 64 81 81 90 121 136 137 159 8 12
20 21 28 21 7 0 11 4 8 9 -3 5 19 35 49 67 30 33 58 67 61 76 3 9 14 20 25 23
10 4 19 13 19 21 0 8 5 14 10 14 6 0 10 7 10 15 0 8 5 15 10 15 6 0 10 4 10 8
0 10 83 101 93 102 4 0 11 -10 16 -22z m1531 -236 c0 -4 18 -26 40 -50 22 -24
40 -47 40 -53 0 -5 11 -21 25 -35 14 -14 36 -42 49 -63 13 -20 31 -42 40 -50
8 -7 14 -17 11 -21 -2 -4 4 -15 15 -25 11 -10 20 -23 20 -30 0 -6 11 -18 25
-25 14 -7 25 -19 25 -25 0 -7 7 -18 15 -25 8 -7 15 -21 15 -31 0 -11 7 -19 15
-19 8 0 15 -7 15 -15 0 -8 9 -19 19 -25 11 -5 23 -20 27 -32 4 -13 15 -29 25
-36 11 -7 19 -19 19 -27 0 -7 4 -15 9 -17 11 -4 141 -175 141 -186 0 -4 9 -14
20 -22 11 -8 20 -20 20 -27 0 -6 6 -16 13 -20 6 -4 18 -20 26 -35 8 -15 32
-46 55 -70 43 -45 71 -88 56 -88 -5 0 -11 -8 -14 -17 -3 -10 -18 -31 -32 -48
-14 -16 -35 -43 -47 -59 -12 -16 -31 -38 -42 -50 -11 -11 -19 -24 -18 -28 2
-5 -3 -8 -10 -8 -6 0 -23 -16 -36 -35 -13 -19 -27 -35 -32 -35 -5 0 -9 -4 -9
-9 0 -9 -48 -57 -159 -161 -78 -73 -181 -162 -181 -157 0 3 -15 -8 -32 -24
-74 -69 -333 -258 -354 -259 -6 0 -17 -7 -24 -15 -7 -8 -31 -23 -54 -33 -22
-11 -47 -26 -55 -35 -7 -10 -18 -17 -23 -17 -5 0 -18 -9 -30 -20 -12 -11 -28
-20 -35 -20 -8 0 -23 -9 -35 -20 -12 -11 -30 -20 -39 -20 -10 0 -19 -3 -21 -7
-3 -8 -81 -53 -92 -53 -8 0 -8 65 0 73 4 4 9 66 11 139 6 201 18 407 34 593 5
66 11 163 13 215 4 137 16 360 22 397 5 36 10 113 20 323 4 74 8 146 9 160 1
14 3 42 4 63 1 35 3 37 34 37 17 0 55 8 82 19 28 10 56 16 63 14 6 -3 12 0 12
5 0 6 10 14 23 18 12 4 36 17 53 30 17 13 36 24 42 24 7 0 12 5 12 10 0 6 7
10 15 10 8 0 15 7 15 16 0 8 4 13 9 10 5 -4 11 -1 13 5 2 6 17 25 33 43 l30
32 23 -24 c12 -13 22 -26 22 -30z m-8200 -89 c-148 -462 -157 -1035 -25 -1583
39 -161 106 -375 136 -432 5 -10 9 -26 9 -37 0 -10 6 -21 14 -24 7 -3 19 -26
27 -51 7 -25 17 -46 21 -46 4 0 5 -9 3 -19 -2 -13 1 -18 9 -15 8 3 19 -10 29
-35 9 -21 21 -42 27 -46 5 -3 10 -15 10 -26 0 -10 5 -19 10 -19 6 0 10 -6 10
-14 0 -8 7 -16 15 -20 8 -3 15 -15 15 -26 0 -11 6 -19 13 -18 7 2 11 -5 9 -17
-2 -11 -1 -17 3 -13 8 8 35 -15 35 -30 0 -5 29 -38 65 -73 36 -35 70 -70 77
-77 33 -33 49 -47 51 -42 3 5 110 -80 115 -92 2 -4 10 -4 19 -1 8 3 18 1 22
-6 4 -6 21 -14 37 -16 76 -13 95 -18 100 -26 3 -5 27 -9 55 -9 34 0 49 -4 49
-13 0 -15 -29 -57 -30 -43 0 5 -8 -1 -19 -12 -10 -12 -27 -23 -37 -25 -10 -2
-34 -11 -53 -19 -26 -12 -43 -13 -75 -6 -22 5 -49 11 -59 13 -21 5 -98 46
-112 61 -5 6 -39 33 -75 60 -84 64 -270 254 -270 275 0 5 -4 9 -9 9 -5 0 -12
8 -15 18 -3 9 -19 33 -36 52 -16 19 -30 42 -30 50 0 9 -9 22 -19 30 -11 7 -18
17 -16 21 3 3 -9 24 -26 45 -18 22 -45 68 -61 104 -16 36 -39 83 -50 105 -11
22 -29 65 -40 95 -11 30 -32 79 -45 109 -57 127 -116 367 -144 591 -16 123
-16 447 0 575 30 241 99 481 187 657 49 98 94 171 101 164 3 -2 -10 -48 -27
-103z m9185 -1158 c48 -63 75 -107 73 -119 -3 -24 -4 -24 -348 -263 -141 -98
-488 -340 -773 -538 -563 -393 -575 -400 -584 -391 -8 7 -6 147 2 186 5 21 26
36 112 78 480 239 1059 704 1365 1097 26 34 49 55 60 53 9 -2 51 -48 93 -103z
m-2722 -1255 c62 -6 115 -10 120 -10 19 0 -16 -190 -36 -190 -21 0 -267 195
-267 212 0 6 13 8 36 4 19 -4 86 -11 147 -16z"/>
<path d="M13310 19524 c-132 -21 -200 -54 -288 -138 -125 -119 -260 -350 -330
-566 -56 -173 -53 -214 22 -252 34 -18 59 -21 151 -21 93 0 123 4 195 27 118
39 258 129 440 284 41 36 86 74 100 86 42 35 165 140 170 146 20 20 100 80
108 80 5 0 15 7 22 15 15 18 66 43 99 50 12 2 32 7 44 11 34 12 106 6 140 -11
45 -22 94 -20 107 6 14 25 5 68 -20 91 -40 37 -168 112 -215 125 -184 53 -229
62 -380 72 -184 13 -260 12 -365 -5z m620 -170 c0 -8 -4 -14 -10 -14 -17 0
-112 -61 -185 -120 -72 -57 -86 -69 -195 -165 -70 -61 -127 -105 -118 -89 3 5
27 47 53 94 120 212 211 307 308 319 64 8 147 -6 147 -25z m-460 -16 c-42 -56
-100 -145 -100 -154 0 -9 -108 -181 -144 -229 -53 -69 -119 -136 -185 -186
-75 -57 -104 -65 -71 -19 12 17 62 103 112 193 50 89 104 180 121 202 75 99
240 235 285 235 9 0 1 -16 -18 -42z m-340 -37 c0 -5 -3 -11 -8 -13 -22 -9
-140 -198 -227 -363 -20 -38 -44 -77 -52 -85 -14 -13 -14 -12 -8 10 29 107
116 260 222 393 50 62 73 80 73 58z"/>
<path d="M14037 18401 c-10 -4 -18 -10 -18 -14 2 -21 0 -28 -7 -23 -5 3 -9 -7
-10 -23 -1 -35 -31 -142 -44 -158 -6 -7 -7 -13 -4 -13 9 0 -36 -84 -46 -88 -5
-2 -8 -9 -8 -16 0 -13 -81 -123 -104 -141 -7 -5 -15 -15 -17 -20 -4 -10 -104
-104 -161 -152 -15 -12 -29 -19 -31 -16 -3 2 -10 -5 -17 -16 -6 -12 -15 -21
-21 -21 -6 0 -47 -24 -91 -52 -44 -29 -83 -51 -86 -50 -2 2 -8 0 -11 -5 -13
-18 -70 -42 -140 -59 -83 -20 -131 -53 -131 -91 0 -52 55 -77 165 -73 110 3
129 5 143 14 7 4 12 5 12 1 0 -3 9 -1 20 5 15 8 23 6 39 -12 11 -13 46 -52 78
-87 135 -148 132 -146 173 -113 21 17 22 21 11 74 -7 31 -19 62 -27 68 -7 7
-14 18 -14 26 0 7 -11 34 -25 60 -32 59 -31 68 3 93 15 12 32 25 39 31 7 5 16
10 20 10 4 0 25 16 46 35 47 43 53 42 156 -26 93 -61 143 -77 177 -54 13 8 24
22 24 31 0 17 -131 154 -148 154 -7 0 -12 4 -12 8 0 5 -11 22 -24 37 l-24 28
33 61 c19 34 43 80 55 104 11 23 26 42 33 43 6 0 71 2 142 4 175 6 194 10 206
43 9 23 7 29 -12 42 -28 19 -88 40 -114 40 -43 1 -167 37 -175 51 -5 8 -5 33
0 55 14 58 -1 191 -20 179 -5 -3 -10 3 -12 13 -2 14 -8 17 -21 13z m-362 -756
c-11 -8 -29 -23 -40 -33 -37 -33 -82 -61 -89 -55 -3 3 -6 1 -6 -5 0 -7 -7 -12
-16 -12 -8 0 -12 5 -8 11 6 10 89 68 138 96 29 18 45 16 21 -2z"/>
<path d="M10345 18253 c-172 -36 -497 -243 -689 -438 -120 -122 -201 -249
-230 -359 -17 -69 -9 -102 29 -112 32 -8 68 15 99 64 37 59 70 79 182 112 39
12 255 9 329 -3 35 -6 146 -22 265 -38 47 -6 94 -13 105 -16 81 -16 395 -21
515 -8 47 6 231 87 264 118 11 9 23 17 28 17 18 0 97 91 103 119 12 55 -3 86
-68 144 -95 83 -108 93 -243 185 -224 152 -533 249 -689 215z m210 -142 c99
-24 256 -92 361 -155 106 -65 274 -195 274 -212 0 -46 -101 -15 -225 69 -49
33 -129 86 -177 119 -82 55 -241 139 -318 168 -90 34 -39 41 85 11z m-230
-126 c50 -14 133 -47 185 -72 113 -55 472 -292 463 -306 -3 -6 -37 -7 -86 -2
-130 11 -206 46 -617 282 -58 34 -124 67 -147 74 -50 14 -53 23 -15 44 35 20
100 14 217 -20z m-210 -190 c115 -58 328 -185 321 -192 -2 -2 -89 8 -192 23
-145 21 -230 27 -366 28 -115 1 -178 5 -178 11 0 20 125 134 170 155 66 30
152 22 245 -25z"/>
<path d="M12977 18122 c-30 -33 -58 -118 -82 -252 -49 -264 -55 -476 -16 -567
33 -75 116 -150 224 -201 48 -23 91 -42 96 -42 14 0 314 -121 356 -143 109
-59 179 -129 195 -197 25 -103 -24 -280 -143 -517 -35 -70 -40 -87 -31 -110 7
-21 17 -29 41 -31 46 -5 78 42 155 225 119 285 137 397 85 514 -26 59 -109
147 -173 185 -80 48 -234 117 -339 152 -94 32 -182 67 -196 79 -8 7 -21 13
-28 13 -17 0 -90 51 -121 85 -22 24 -25 35 -25 108 0 70 8 188 20 287 2 14 10
66 19 115 9 50 18 104 21 120 3 17 8 42 11 57 3 15 5 29 4 30 -1 2 3 15 9 31
16 41 -1 77 -37 77 -16 0 -36 -8 -45 -18z"/>
<path d="M15212 17515 c-8 -18 -19 -24 -36 -23 -16 2 -22 7 -18 17 3 9 1 12
-5 8 -6 -4 -14 -1 -17 5 -3 10 -9 8 -19 -5 -15 -18 -16 -18 -26 0 -6 11 -11
13 -11 5 0 -7 -4 -10 -10 -7 -5 3 -10 -1 -10 -10 0 -10 5 -14 13 -10 6 4 4 0
-5 -8 -10 -8 -16 -17 -13 -20 3 -4 2 -5 -2 -2 -3 3 -13 -1 -21 -8 -13 -10 -15
-9 -9 6 3 9 2 17 -2 17 -5 0 -12 -8 -15 -17 -6 -14 -9 -13 -23 8 -9 13 -21 27
-27 31 -14 10 -25 -10 -18 -35 3 -12 1 -18 -5 -14 -5 3 -10 -1 -10 -9 0 -10 7
-8 24 8 14 13 23 19 21 13 -2 -5 1 -11 6 -12 5 -1 13 -7 17 -15 7 -10 9 -10 9
2 1 11 4 10 15 -4 8 -11 15 -15 15 -10 0 6 7 11 15 11 8 0 15 -4 15 -9 0 -4 5
-8 10 -8 6 0 10 6 10 14 0 7 10 16 21 19 14 4 20 11 16 21 -5 12 -1 12 23 -2
16 -9 28 -21 27 -26 -1 -6 8 -11 19 -12 12 0 27 -5 34 -9 9 -6 11 -4 5 6 -6
11 -5 12 6 2 15 -15 53 -17 44 -3 -4 7 2 7 19 0 23 -8 25 -7 23 12 -1 13 4 22
16 23 9 2 17 -2 17 -8 0 -7 9 -1 19 12 25 33 8 72 -31 69 -15 -1 -26 -5 -26
-8 2 -18 -4 -26 -22 -27 -11 -1 -20 3 -20 9 0 6 -11 8 -25 6 -20 -4 -23 -3
-14 8 6 8 7 14 2 14 -5 0 -15 -11 -21 -25z m32 -32 c4 -9 1 -21 -5 -27 -9 -8
-10 -8 -5 2 4 7 2 19 -4 27 -7 9 -8 15 -2 15 5 0 13 -8 16 -17z m96 -3 c0 -5
-2 -10 -4 -10 -3 0 -8 5 -11 10 -3 6 -1 10 4 10 6 0 11 -4 11 -10z"/>
<path d="M15280 17519 c0 -5 5 -7 10 -4 6 3 10 8 10 11 0 2 -4 4 -10 4 -5 0
-10 -5 -10 -11z"/>
<path d="M14990 17501 c-13 -26 2 -35 18 -11 7 11 8 21 2 25 -5 3 -14 -3 -20
-14z"/>
<path d="M15107 17436 c-12 -9 -14 -16 -8 -21 6 -3 11 -1 11 4 0 6 9 11 21 11
11 0 17 5 14 10 -8 13 -16 12 -38 -4z"/>
<path d="M14870 17009 c0 -5 5 -7 10 -4 6 3 10 8 10 11 0 2 -4 4 -10 4 -5 0
-10 -5 -10 -11z"/>
<path d="M14949 16965 c-1 -6 -1 -13 0 -17 0 -5 -3 -8 -9 -8 -5 0 -10 -4 -10
-10 0 -17 29 -11 52 12 13 13 16 19 6 16 -9 -4 -21 -1 -27 5 -6 6 -12 7 -12 2z"/>
<path d="M14980 16931 c0 -5 -3 -16 -6 -24 -8 -23 45 -29 68 -7 18 17 18 17
-6 13 -15 -3 -23 -10 -19 -16 3 -5 1 -7 -5 -4 -5 4 -8 16 -5 27 4 14 0 20 -11
20 -9 0 -16 -4 -16 -9z"/>
<path d="M15096 16907 c3 -10 9 -15 12 -12 3 3 0 11 -7 18 -10 9 -11 8 -5 -6z"/>
<path d="M15192 16908 c-10 -12 -7 -17 14 -27 14 -6 23 -7 19 -2 -3 5 -1 12 5
16 5 3 10 0 10 -7 0 -9 13 -14 33 -15 29 -1 30 -1 7 7 -14 4 -21 8 -15 9 5 1
-1 8 -14 17 -18 13 -25 14 -31 4 -6 -10 -8 -10 -12 0 -3 9 -7 8 -16 -2z"/>
<path d="M11519 16874 c-15 -8 -44 -35 -65 -61 -65 -80 -186 -196 -244 -235
-30 -21 -75 -52 -99 -69 -137 -96 -328 -191 -496 -248 -173 -58 -256 -72 -407
-70 -71 0 -132 -2 -135 -5 -4 -3 -19 -6 -34 -6 -35 0 -42 -11 -24 -38 19 -27
156 -71 233 -75 73 -4 85 -11 77 -45 -3 -15 -7 -81 -10 -146 -6 -142 3 -166
60 -166 46 0 59 21 121 206 40 121 52 148 72 155 13 5 78 16 145 25 67 8 125
18 129 20 4 3 19 2 34 -2 25 -6 41 -26 166 -201 33 -46 80 -70 111 -56 50 23
42 87 -27 237 -20 44 -35 85 -32 93 3 7 25 23 50 35 74 38 175 98 181 108 12
20 47 9 108 -32 34 -24 82 -54 107 -67 25 -14 47 -27 50 -30 27 -31 108 -44
134 -21 26 21 19 46 -29 102 -25 29 -49 58 -53 63 -4 6 -36 43 -70 83 -60 70
-62 75 -48 95 46 65 103 185 117 246 14 61 -27 123 -78 120 -10 -1 -30 -7 -44
-15z m-139 -334 c-6 -11 -17 -20 -25 -20 -8 0 -15 -6 -15 -13 0 -22 -162 -147
-190 -147 -6 0 -10 -3 -10 -7 0 -9 -37 -28 -102 -53 -27 -10 -48 -15 -48 -11
0 9 109 80 170 112 22 12 43 25 46 31 3 5 32 26 63 46 31 20 67 46 81 59 31
28 44 30 30 3z"/>
<path d="M15121 16875 c-16 -8 -19 -13 -10 -17 19 -6 65 18 47 25 -8 2 -24 -1
-37 -8z"/>
<path d="M15175 16860 c-3 -5 1 -13 9 -16 9 -3 14 -10 11 -14 -3 -5 -1 -11 3
-14 5 -3 9 7 8 21 -1 28 -19 42 -31 23z"/>
<path d="M15080 16839 c0 -5 -5 -7 -12 -3 -6 4 -8 3 -5 -3 4 -6 18 -8 32 -6
13 3 22 9 19 14 -7 13 -34 11 -34 -2z"/>
<path d="M15279 16794 c-22 -25 -23 -26 -2 -15 12 6 23 16 26 23 3 9 9 7 21
-7 13 -17 15 -17 16 -4 0 9 -7 20 -16 23 -21 8 -17 9 -45 -20z"/>
<path d="M15350 16810 c0 -5 5 -10 10 -10 6 0 10 5 10 10 0 6 -4 10 -10 10 -5
0 -10 -4 -10 -10z"/>
<path d="M15120 16806 c0 -2 9 -6 20 -9 11 -3 20 -1 20 4 0 5 -9 9 -20 9 -11
0 -20 -2 -20 -4z"/>
<path d="M15175 16789 c-4 -13 -12 -18 -21 -15 -9 4 -12 2 -8 -5 3 -6 15 -8
26 -6 14 4 18 2 14 -9 -4 -11 -2 -12 13 -5 10 6 21 17 25 26 4 12 0 14 -19 9
-20 -5 -24 -3 -19 10 3 9 4 16 1 16 -3 0 -9 -9 -12 -21z"/>
<path d="M15346 16775 c-9 -10 -17 -11 -21 -5 -8 14 -25 3 -25 -16 0 -8 4 -13
9 -10 5 4 12 0 14 -6 4 -10 6 -10 6 0 1 19 21 14 21 -5 0 -15 4 -13 21 7 11
14 17 19 13 11 -5 -9 -3 -12 5 -7 15 10 4 26 -17 26 -15 0 -15 2 -2 10 9 6 10
10 3 10 -6 0 -18 -7 -27 -15z"/>
<path d="M15431 16771 c-8 -5 -10 -14 -6 -21 6 -9 10 -8 17 4 12 21 7 28 -11
17z"/>
<path d="M15227 16746 c-4 -10 1 -12 14 -9 23 6 24 9 5 16 -8 3 -17 0 -19 -7z"/>
<path d="M15256 16716 c7 -19 20 -21 30 -3 4 6 4 9 -1 5 -4 -4 -14 -3 -22 4
-11 8 -12 7 -7 -6z"/>
<path d="M15363 16703 c-7 -2 -13 -12 -12 -21 0 -11 2 -12 6 -4 2 6 8 10 12 8
4 -3 8 1 8 9 0 8 -1 15 -1 14 -1 0 -7 -3 -13 -6z"/>
<path d="M14203 16655 c-12 -8 -30 -30 -41 -47 -19 -31 -59 -167 -68 -233 -39
-269 -40 -271 -259 -540 -189 -231 -245 -310 -289 -407 -14 -31 -30 -59 -35
-63 -5 -3 -49 1 -98 9 -48 7 -104 12 -123 9 -259 -32 -571 -123 -1095 -318
-231 -86 -365 -131 -441 -146 -57 -12 -65 -11 -165 20 -314 97 -476 138 -539
136 -57 -2 -138 -47 -158 -88 -21 -43 1 -75 85 -123 155 -88 282 -110 583
-100 190 5 397 25 690 65 140 19 251 33 545 66 315 36 674 86 735 101 77 19
188 70 248 114 36 26 53 50 92 133 63 135 168 417 237 641 61 200 69 218 125
292 39 52 77 145 108 269 28 110 25 139 -19 186 -42 43 -80 51 -118 24z"/>
<path d="M14850 16580 c0 -5 -8 -7 -17 -4 -14 4 -15 3 -5 -4 8 -5 14 -13 14
-17 0 -4 -6 -12 -14 -16 -10 -7 -10 -9 0 -9 22 0 27 5 24 23 -2 10 3 17 13 17
9 0 13 5 10 10 -8 13 -25 13 -25 0z"/>
<path d="M14911 16564 c0 -11 3 -14 6 -6 3 7 2 16 -1 19 -3 4 -6 -2 -5 -13z"/>
<path d="M14930 16573 c0 -7 5 -15 10 -18 6 -4 8 -11 5 -16 -4 -5 -1 -9 4 -9
15 0 13 11 -4 34 -8 11 -15 15 -15 9z"/>
<path d="M14907 16513 c-12 -12 -7 -22 8 -17 8 4 15 10 15 15 0 11 -14 12 -23
2z"/>
<path d="M14865 16490 c-3 -5 -1 -10 6 -10 6 0 9 -8 6 -19 -6 -24 17 -35 33
-15 11 13 7 18 -12 15 -5 0 -8 5 -8 13 0 19 -17 29 -25 16z"/>
<path d="M14980 16470 c0 -5 5 -10 11 -10 5 0 7 5 4 10 -3 6 -8 10 -11 10 -2
0 -4 -4 -4 -10z"/>
<path d="M14915 16439 c-4 -6 -1 -15 6 -20 21 -13 31 -11 27 8 -4 20 -24 28
-33 12z"/>
<path d="M15000 16440 c0 -5 5 -10 11 -10 5 0 7 5 4 10 -3 6 -8 10 -11 10 -2
0 -4 -4 -4 -10z"/>
<path d="M14980 16432 c0 -4 -12 -15 -27 -25 l-28 -17 30 5 c27 6 28 5 13 -8
-10 -8 -15 -17 -11 -20 10 -11 25 -8 18 2 -3 6 3 14 12 20 10 6 13 11 6 11 -6
0 -9 9 -6 20 3 11 3 20 -1 20 -3 0 -6 -3 -6 -8z"/>
<path d="M15000 16414 c0 -2 9 -8 20 -14 11 -6 20 -7 20 -2 0 6 -9 12 -20 15
-11 3 -20 3 -20 1z"/>
<path d="M12522 16039 c-92 -7 -122 -24 -122 -70 0 -49 94 -109 237 -150 133
-38 237 -19 276 48 16 27 17 38 7 67 -6 18 -19 41 -28 50 -47 42 -211 67 -370
55z"/>
<path d="M9334 15722 c-6 -4 -3 -14 8 -24 10 -10 20 -13 23 -8 4 6 1 10 -5 10
-6 0 -9 4 -5 9 7 12 -8 22 -21 13z"/>
<path d="M9269 15707 c-7 -15 -7 -57 1 -62 5 -3 11 -1 11 4 1 6 3 16 4 21 1 6
3 15 4 21 0 5 7 7 14 3 6 -4 8 -3 4 1 -6 8 -35 16 -38 12z"/>
<path d="M9358 15659 c-13 -14 -14 -19 -5 -19 8 0 22 9 32 20 14 15 15 20 4
19 -8 0 -22 -9 -31 -20z"/>
<path d="M9226 15661 c-4 -5 -2 -12 3 -15 5 -4 12 -2 15 3 4 5 2 12 -3 15 -5
4 -12 2 -15 -3z"/>
<path d="M9300 15646 c0 -2 7 -7 16 -10 8 -3 12 -2 9 4 -6 10 -25 14 -25 6z"/>
<path d="M9241 15631 c-8 -5 -21 -7 -29 -4 -12 5 -12 2 -2 -16 l12 -23 15 21
c8 12 19 18 25 15 7 -4 8 -2 4 4 -8 14 -7 14 -25 3z"/>
<path d="M9259 15593 c-13 -16 -12 -17 4 -4 9 7 17 15 17 17 0 8 -8 3 -21 -13z"/>
<path d="M9172 15593 c-10 -4 -10 -8 0 -21 11 -13 10 -15 -4 -9 -9 3 -26 -2
-39 -14 -12 -10 -17 -19 -11 -19 6 0 14 5 17 11 4 6 19 10 33 9 15 -1 30 -1
35 0 4 1 11 3 16 4 5 0 13 5 18 10 4 5 -4 6 -19 2 -17 -4 -28 -2 -28 4 0 5 5
10 11 10 5 0 7 5 4 10 -7 11 -13 11 -33 3z"/>
<path d="M9206 15515 c4 -9 -2 -18 -17 -23 -15 -6 -18 -11 -11 -16 17 -10 15
-26 -4 -26 -9 0 -14 6 -11 13 3 8 1 20 -3 27 -7 11 -11 10 -24 -3 -19 -18 -20
-33 -4 -43 7 -4 8 -3 4 4 -4 7 -3 12 3 12 5 0 11 -10 13 -22 4 -28 21 -33 42
-13 15 15 16 15 16 0 0 -9 5 -13 11 -10 7 5 5 13 -5 24 -19 21 -21 32 -3 26 6
-3 23 4 36 14 23 18 24 20 8 36 -16 15 -18 15 -27 -7 -10 -23 -11 -23 -6 0 3
14 -1 22 -10 22 -8 0 -11 -6 -8 -15z"/>
<path d="M9078 15503 c7 -3 16 -2 19 1 4 3 -2 6 -13 5 -11 0 -14 -3 -6 -6z"/>
<path d="M9095 15480 c-3 -5 -1 -10 4 -10 6 0 11 5 11 10 0 6 -2 10 -4 10 -3
0 -8 -4 -11 -10z"/>
<path d="M9031 15436 c-7 -8 -11 -25 -9 -38 2 -14 -2 -22 -9 -20 -7 1 -13 -2
-13 -6 0 -17 14 -21 29 -9 14 11 14 10 2 -6 -13 -16 -15 -16 -33 -1 -10 10
-16 25 -13 35 3 9 1 20 -5 24 -6 4 -9 1 -8 -6 2 -7 -4 -13 -13 -14 -8 0 -23
-8 -33 -17 -20 -20 -14 -23 15 -7 17 9 25 6 44 -15 16 -17 29 -23 44 -19 12 3
21 1 21 -4 0 -15 -43 -13 -67 3 -22 14 -23 13 -24 -13 -1 -17 -3 -21 -6 -10
-2 9 -9 17 -14 17 -6 0 -7 -9 -4 -21 5 -14 3 -19 -3 -15 -6 3 -14 -3 -17 -15
-6 -17 -9 -19 -17 -8 -8 12 -9 11 -5 -1 3 -10 15 -14 36 -12 18 1 31 -3 31
-10 0 -7 6 -6 18 4 19 17 46 13 35 -5 -3 -7 -2 -8 3 -4 5 5 9 12 9 16 0 19 50
78 62 74 9 -4 11 0 7 11 -3 9 -1 16 6 16 6 0 11 10 10 23 -4 39 0 48 13 41 8
-5 8 -3 -1 7 -11 12 -15 11 -26 -3 -7 -10 -22 -18 -32 -18 -14 0 -15 3 -6 9
10 6 10 10 -1 20 -11 9 -17 8 -26 -3z m35 -83 c-11 -11 -17 4 -9 23 7 18 8 18
11 1 2 -10 1 -21 -2 -24z m-36 -54 c0 -6 -6 -9 -12 -6 -7 2 -22 -1 -33 -6 -27
-15 -46 -17 -39 -6 3 5 12 9 20 9 8 0 14 5 14 10 0 6 11 10 25 10 14 0 25 -5
25 -11z"/>
<path d="M9180 15400 c0 -5 5 -10 10 -10 6 0 10 5 10 10 0 6 -4 10 -10 10 -5
0 -10 -4 -10 -10z"/>
<path d="M9120 15390 c0 -5 6 -10 13 -10 7 0 8 -3 2 -8 -14 -10 -17 -32 -5
-32 6 0 10 7 10 16 0 9 5 12 13 8 6 -4 3 2 -7 14 -21 24 -26 27 -26 12z"/>
<path d="M8900 15323 c-20 -7 -50 -34 -50 -45 0 -4 7 -8 16 -8 10 0 14 6 11
15 -4 8 -1 17 5 21 6 4 8 3 5 -3 -4 -6 -1 -13 7 -16 9 -4 16 3 19 19 2 13 4
24 3 23 0 0 -8 -3 -16 -6z"/>
<path d="M8865 15239 c-4 -6 -5 -12 -2 -15 2 -3 7 2 10 11 7 17 1 20 -8 4z"/>
<path d="M8836 15227 c3 -10 9 -15 12 -12 3 3 0 11 -7 18 -10 9 -11 8 -5 -6z"/>
<path d="M8902 15227 c-7 -7 -9 -16 -6 -20 3 -3 -4 -3 -15 0 -17 4 -20 2 -14
-13 5 -13 3 -16 -10 -11 -12 4 -17 1 -17 -11 0 -15 -2 -15 -10 -2 -5 8 -10 11
-10 5 0 -5 -5 -3 -10 5 -8 13 -10 13 -10 1 0 -12 -3 -12 -12 -3 -10 10 -10 15
1 21 7 5 9 11 4 14 -4 3 -16 -1 -26 -8 -14 -10 -15 -14 -5 -19 10 -5 10 -7 1
-12 -32 -14 1 -54 39 -47 18 3 33 -2 51 -21 20 -20 26 -22 31 -10 4 10 2 13
-6 8 -7 -5 -9 -2 -5 9 3 9 1 18 -6 21 -12 5 35 10 66 7 9 -1 17 4 17 12 0 8
10 18 22 24 19 8 20 10 4 16 -10 4 -15 3 -11 -3 3 -6 -1 -7 -10 -4 -8 4 -22 1
-30 -6 -22 -18 -18 4 5 31 16 19 19 20 13 5 -5 -16 -3 -17 13 -8 12 7 25 7 36
1 14 -7 16 -6 12 6 -4 8 -7 15 -8 16 -28 10 -85 8 -94 -4z m-9 -62 c-7 -21
-13 -19 -13 6 0 11 4 18 10 14 5 -3 7 -12 3 -20z"/>
<path d="M8813 15215 c0 -8 4 -15 9 -15 4 0 8 4 8 9 0 6 -4 12 -8 15 -5 3 -9
-1 -9 -9z"/>
<path d="M9644 15211 c4 -5 0 -12 -6 -14 -7 -3 -3 -6 10 -6 22 -1 23 -1 5 -25
-10 -13 -24 -21 -32 -18 -9 3 -12 1 -7 -6 4 -7 1 -12 -6 -13 -7 0 -2 -5 11
-10 13 -5 29 -8 35 -5 6 2 3 5 -8 5 -15 1 -16 4 -6 16 7 8 16 12 21 9 5 -3 6
1 4 8 -4 10 3 13 22 12 16 -1 29 -3 31 -3 2 -1 -10 -12 -25 -25 -33 -28 -28
-41 9 -24 19 9 25 20 24 39 -1 22 -5 26 -23 23 -16 -3 -21 0 -17 10 3 8 -3 19
-15 25 -24 13 -34 14 -27 2z"/>
<path d="M8708 15152 c-14 -16 -29 -49 -34 -79 -1 -7 3 -13 10 -13 7 0 18 -10
25 -23 7 -13 20 -23 31 -24 18 -2 21 12 7 35 -5 7 -4 12 2 12 6 0 11 5 11 11
0 5 -3 8 -7 6 -5 -3 -14 1 -20 9 -8 8 -9 15 -3 19 6 3 10 1 10 -4 0 -6 7 -11
15 -11 20 0 19 17 -2 28 -12 7 -21 4 -33 -11 -12 -14 -19 -17 -24 -9 -4 7 0
15 8 18 9 3 16 12 16 19 0 7 5 15 12 17 8 3 9 6 1 11 -6 4 -17 -1 -25 -11z"/>
<path d="M8826 15094 c-4 -9 -4 -19 -1 -22 3 -3 5 0 5 7 0 7 4 9 10 6 6 -3 7
1 4 9 -8 20 -10 20 -18 0z"/>
<path d="M8778 15083 c-5 -20 7 -43 24 -43 4 0 8 7 8 15 0 8 -4 15 -9 15 -5 0
-11 8 -13 18 -3 14 -5 13 -10 -5z"/>
<path d="M9640 15090 c0 -5 5 -10 11 -10 5 0 7 5 4 10 -3 6 -8 10 -11 10 -2 0
-4 -4 -4 -10z"/>
<path d="M9558 15063 c6 -2 10 -9 7 -13 -3 -5 -1 -11 5 -15 5 -3 10 3 10 14 0
14 -6 21 -17 20 -11 0 -13 -3 -5 -6z"/>
<path d="M9668 15063 c7 -3 16 -2 19 1 4 3 -2 6 -13 5 -11 0 -14 -3 -6 -6z"/>
<path d="M8666 15041 c-3 -5 1 -11 9 -15 8 -3 15 -1 15 4 0 13 -18 22 -24 11z"/>
<path d="M9617 15000 c-14 -11 -32 -17 -41 -14 -12 4 -16 0 -17 -17 -1 -13 -1
-27 0 -31 0 -5 -4 -8 -9 -8 -6 0 -8 11 -4 25 5 19 2 25 -10 25 -9 0 -16 -5
-16 -11 0 -6 -6 -9 -14 -6 -10 4 -19 -5 -27 -26 -7 -18 -15 -36 -17 -41 -2 -4
5 -5 16 -2 16 5 21 2 24 -16 2 -13 11 -24 21 -26 13 -3 17 3 17 26 0 18 6 32
16 36 8 3 12 2 9 -3 -3 -5 0 -13 6 -17 9 -5 7 -11 -5 -20 -11 -8 -13 -14 -7
-19 16 -9 31 3 31 25 0 24 18 36 33 21 17 -17 31 -13 17 4 -7 8 -9 15 -5 15 5
0 0 9 -10 20 -10 11 -24 20 -31 20 -7 0 -15 4 -18 8 -8 13 31 7 48 -7 14 -12
16 -11 10 3 -4 11 -2 15 7 13 8 -2 11 -2 7 0 -5 3 -8 12 -8 20 0 10 6 14 20
10 11 -3 23 -1 26 4 10 17 -44 9 -69 -11z m-87 -54 c0 -2 -9 -6 -20 -9 -11 -3
-18 -1 -14 4 5 9 34 13 34 5z"/>
<path d="M9655 14950 c-3 -5 -1 -10 4 -10 6 0 11 5 11 10 0 6 -2 10 -4 10 -3
0 -8 -4 -11 -10z"/>
<path d="M10161 14901 c-11 -7 -10 -14 8 -40 26 -36 30 -38 28 -11 -1 11 -7
22 -15 25 -8 3 -11 12 -8 20 6 17 6 18 -13 6z"/>
<path d="M10140 14850 c6 -11 8 -25 5 -30 -3 -6 -1 -10 4 -10 17 0 13 47 -4
54 -13 4 -14 2 -5 -14z"/>
<path d="M14023 14849 c-76 -38 -215 -211 -229 -285 -12 -66 15 -114 65 -114
79 0 220 105 271 202 46 87 42 164 -11 202 -31 21 -45 20 -96 -5z"/>
<path d="M9620 14852 c-59 -20 -64 -23 -50 -32 8 -5 19 -5 26 0 6 6 13 8 16 5
3 -3 11 1 18 10 15 18 11 24 -10 17z"/>
<path d="M9468 14842 c11 -7 11 -10 -2 -15 -9 -4 -16 -13 -16 -22 0 -8 -4 -15
-10 -15 -5 0 -10 6 -10 13 0 6 -9 -1 -20 -18 -23 -35 -26 -57 -5 -49 10 4 13
0 10 -15 -3 -14 1 -21 12 -21 11 0 13 4 6 13 -26 34 5 51 47 26 13 -8 13 -9 0
-8 -32 3 -42 -1 -36 -16 3 -9 -3 -19 -15 -25 -23 -13 -40 -5 -32 15 3 9 -1 15
-10 15 -25 0 -30 -31 -6 -48 17 -11 18 -16 8 -23 -10 -6 -6 -9 14 -9 15 0 27
-4 27 -9 0 -5 13 -4 30 2 20 7 25 14 17 19 -9 6 -8 8 3 8 13 0 13 1 0 10 -13
9 -13 10 0 10 8 1 26 14 39 30 18 21 28 27 37 19 8 -7 15 -6 20 2 4 8 3 9 -4
5 -7 -4 -12 -1 -12 8 0 9 -4 16 -10 16 -5 0 -10 4 -10 10 0 5 13 8 30 6 16 -2
27 1 24 5 -3 5 -16 9 -29 9 -13 0 -32 11 -42 24 -10 13 -30 26 -43 30 -17 5
-21 4 -12 -2z m47 -61 c-6 -4 -23 -11 -40 -15 l-30 -6 25 15 c27 16 60 21 45
6z m-75 -110 c0 -6 -4 -13 -10 -16 -5 -3 -10 1 -10 9 0 9 5 16 10 16 6 0 10
-4 10 -9z"/>
<path d="M10116 14801 c-3 -5 3 -11 15 -14 16 -4 18 -3 8 9 -13 16 -16 17 -23
5z"/>
<path d="M10104 14760 c0 -13 4 -16 10 -10 7 7 7 13 0 20 -6 6 -10 3 -10 -10z"/>
<path d="M10157 14756 c-4 -9 -3 -15 2 -12 5 3 12 -1 15 -10 4 -10 2 -13 -7
-8 -7 5 -5 0 3 -11 9 -11 10 -16 3 -11 -7 4 -13 2 -13 -3 0 -6 -7 -11 -15 -11
-8 0 -15 -4 -15 -10 0 -5 9 -10 21 -10 13 0 18 -4 13 -12 -5 -10 -3 -10 7 0 8
7 15 17 15 23 1 5 3 10 4 12 9 8 4 57 -6 57 -7 0 -14 5 -16 12 -3 7 -7 5 -11
-6z"/>
<path d="M10107 14703 c-10 -10 -8 -33 2 -33 6 0 9 9 8 20 -1 23 -1 22 -10 13z"/>
<path d="M9513 14686 c3 -7 0 -19 -6 -25 -6 -6 -7 -11 -3 -11 5 0 3 -7 -4 -16
-12 -13 -10 -14 13 -3 29 13 38 33 10 22 -11 -4 -14 -3 -9 5 4 7 14 12 21 12
9 0 12 6 9 15 -4 8 -13 15 -21 15 -9 0 -13 -6 -10 -14z"/>
<path d="M9369 14614 c-6 -8 -3 -11 13 -10 13 1 30 -3 38 -8 13 -9 13 -8 3 5
-7 9 -10 19 -7 22 4 3 -4 5 -15 4 -12 -1 -26 -7 -32 -13z"/>
<path d="M5617 20243 c-2 -5 -1 -19 3 -33 6 -25 6 -25 18 8 9 26 8 32 -3 32
-8 0 -16 -3 -18 -7z"/>
<path d="M5550 20151 c-7 -11 -17 -18 -21 -16 -6 5 -79 -106 -79 -121 0 -4 -8
-17 -18 -28 -10 -12 -24 -39 -31 -61 -7 -22 -23 -56 -36 -75 -13 -19 -31 -60
-40 -90 -10 -30 -24 -64 -32 -76 -7 -12 -10 -29 -7 -39 5 -12 4 -16 -3 -12
-12 8 -23 -24 -23 -70 0 -41 14 -42 32 -3 7 17 16 30 20 30 5 0 8 15 8 34 0
19 4 36 8 38 11 4 64 120 82 178 14 43 47 101 63 108 4 2 7 12 7 23 0 10 5 19
10 19 6 0 10 8 10 18 0 11 9 27 20 37 11 10 20 24 20 31 0 7 3 14 8 16 8 3 52
64 52 73 0 13 -37 3 -50 -14z"/>
<path d="M5237 19499 c-4 -16 -3 -18 9 -8 7 6 11 15 8 20 -8 13 -11 11 -17
-12z"/>
<path d="M14570 8370 c0 -5 5 -10 11 -10 5 0 7 5 4 10 -3 6 -8 10 -11 10 -2 0
-4 -4 -4 -10z"/>
</g>
</svg>
